<svg width="92" height="126" viewBox="0 0 92 126" fill="none" xmlns="http://www.w3.org/2000/svg">
<path d="M13.1034 81.6357H33.2993C36.192 81.6357 38.5414 84.002 38.5414 86.9153V89.7251C38.5414 92.6384 36.192 95.0047 33.2993 95.0047H13.1034C10.2107 95.0047 7.86127 92.6384 7.86127 89.7251V86.9153C7.86127 84.002 10.2107 81.6357 13.1034 81.6357Z" fill="#EC5F82"/>
<path d="M86.716 33.5245H36.6033C33.1688 33.5245 30.3737 30.7108 30.3737 27.2504V19.4651C30.3737 16.006 33.1674 13.1923 36.6033 13.1923H80.4863C83.9209 13.1923 86.7147 16.006 86.7147 19.4651V33.5232L86.716 33.5245ZM36.6033 14.1882C33.7133 14.1882 31.3625 16.5557 31.3625 19.4664V27.2517C31.3625 30.1624 33.7133 32.53 36.6033 32.53H85.7272V19.4678C85.7272 16.5571 83.3764 14.1895 80.4863 14.1895H36.6033V14.1882Z" fill="black"/>
<path d="M78.6577 19.5116H37.0463V20.5075H78.6577V19.5116Z" fill="black"/>
<path d="M78.6577 22.8605H37.0463V23.8564H78.6577V22.8605Z" fill="black"/>
<path d="M78.659 26.7113H53.3093V27.7072H78.659V26.7113Z" fill="black"/>
<path d="M91.3846 125.141H41.2719C37.8374 125.141 35.0436 122.327 35.0436 118.868V111.084C35.0436 107.625 37.8374 104.81 41.2719 104.81H85.155C88.5895 104.81 91.3846 107.623 91.3846 111.084V125.142V125.141ZM41.2719 105.804C38.3819 105.804 36.0311 108.172 36.0311 111.083V118.866C36.0311 121.777 38.3819 124.145 41.2719 124.145H90.3958V111.083C90.3958 108.172 88.045 105.804 85.155 105.804H41.2719Z" fill="black"/>
<path d="M83.3276 111.129H41.7162V112.125H83.3276V111.129Z" fill="black"/>
<path d="M83.3276 114.477H41.7162V115.472H83.3276V114.477Z" fill="black"/>
<path d="M83.3276 118.041H57.9779V119.036H83.3276V118.041Z" fill="black"/>
<path d="M53.0351 73.334H7.36816V51.6553C7.36816 46.2681 11.7045 41.9008 17.0534 41.9008H53.0364C58.3853 41.9008 62.7217 46.2681 62.7217 51.6553V63.5795C62.7217 68.9667 58.3853 73.334 53.0364 73.334H53.0351Z" fill="#EC5F82"/>
<path d="M56.3444 48.4166H14.733V49.4125H56.3444V48.4166Z" fill="black"/>
<path d="M56.3444 51.7655H14.733V52.7614H56.3444V51.7655Z" fill="black"/>
<path d="M56.3444 59.1431H41.5897V60.139H56.3444V59.1431Z" fill="black"/>
<path d="M56.3444 62.4906H14.733V63.4865H56.3444V62.4906Z" fill="black"/>
<path d="M56.3444 66.1927H14.733V67.1886H56.3444V66.1927Z" fill="black"/>
<path d="M11.9191 19.5955C16.8885 18.7831 20.2631 14.0672 19.4565 9.06225C18.6498 4.0573 13.9674 0.658589 8.99794 1.47101C4.02851 2.28342 0.65392 6.99933 1.46057 12.0043C2.26722 17.0092 6.94966 20.4079 11.9191 19.5955Z" fill="#EC5F82"/>
<path d="M13.9986 11.061C13.9986 11.061 13.9209 14.8972 10.274 14.8972C6.62723 14.8972 6.63382 11.061 6.63382 11.061H13.9986Z" fill="white"/>
<path d="M14.0421 8.50885C14.0421 8.93244 14.3823 9.27503 14.8029 9.27503C15.2235 9.27503 15.5636 8.93244 15.5636 8.50885C15.5636 8.08526 15.2235 7.74268 14.8029 7.74268C14.3823 7.74268 14.0421 8.08526 14.0421 8.50885Z" fill="black"/>
<path d="M5.69507 8.50885C5.69507 8.93244 6.03523 9.27503 6.45581 9.27503C6.87639 9.27503 7.21655 8.93244 7.21655 8.50885C7.21655 8.08526 6.87639 7.74268 6.45581 7.74268C6.03523 7.74268 5.69507 8.08526 5.69507 8.50885Z" fill="black"/>
</svg>
