<svg width="176" height="131" viewBox="0 0 176 131" fill="none" xmlns="http://www.w3.org/2000/svg">
<path d="M89.0408 43.6231C89.3971 41.5967 88.9454 39.5518 87.768 37.8668C86.8409 36.5376 85.543 35.5749 84.0491 35.045C84.3047 34.7715 84.563 34.5006 84.7802 34.1886C85.9576 32.5022 86.4092 30.4586 86.0529 28.4323C85.404 24.7421 82.2241 22.0638 78.4919 22.0638C78.4747 22.0638 78.4561 22.0678 78.4389 22.0678C79.362 19.91 79.3223 17.3658 78.0628 15.1802C76.6947 12.8033 74.1412 11.3267 71.4023 11.3267C70.4911 11.3267 69.5905 11.5046 68.7389 11.822C68.7601 11.4489 68.7826 11.0771 68.7509 10.6999C68.5721 8.64972 67.6079 6.79204 66.0358 5.46948C64.6531 4.3076 62.9009 3.66624 61.0984 3.66624C59.2959 3.66624 57.5133 4.35142 56.1332 5.53056C55.4631 3.26921 53.7943 1.33451 51.4183 0.46741C50.5707 0.156689 49.686 0 48.7894 0C46.0081 0 43.4679 1.52705 42.1183 3.89862C40.7158 2.0157 38.4961 0.778131 35.9771 0.778131C32.1813 0.778131 29.0411 3.55735 28.4226 7.18907C27.1923 6.37509 25.7367 5.89971 24.2018 5.89971C23.3065 5.89971 22.4217 6.05773 21.5741 6.36579C19.6458 7.07089 18.1042 8.48507 17.2367 10.3507C16.5559 11.8127 16.3705 13.4141 16.654 14.9704C16.0778 14.8336 15.4872 14.7539 14.8819 14.7539C13.0807 14.7539 11.3272 15.394 9.94583 16.5572C8.37243 17.8811 7.40826 19.7374 7.22947 21.7876C7.08908 23.3957 7.45992 24.9612 8.25589 26.3263C5.86665 26.6104 3.71184 28.0047 2.49339 30.1187C1.46697 31.902 1.19415 33.9774 1.72523 35.9653C2.14375 37.5295 3.0311 38.8773 4.25088 39.8878C2.13712 40.9501 0.553132 42.9459 0.118726 45.4197C-0.23754 47.4473 0.214083 49.4909 1.39148 51.1773C2.31857 52.5052 3.61649 53.4679 5.11042 53.999C3.49994 55.712 2.66689 58.1207 3.10527 60.6118C3.75423 64.3019 6.9328 66.9802 10.6663 66.9802C10.6835 66.9802 10.7021 66.9762 10.7193 66.9762C9.79617 69.134 9.83723 71.6782 11.0954 73.8639C12.4649 76.2408 15.017 77.7174 17.7572 77.7174C18.6684 77.7174 19.569 77.5394 20.4206 77.2234C20.3994 77.5965 20.3769 77.9683 20.4087 78.3454C20.5874 80.3957 21.5516 82.2533 23.1237 83.5759C24.5064 84.7378 26.2586 85.3791 28.0611 85.3791C29.8636 85.3791 31.6463 84.694 33.025 83.5148C33.6951 85.7762 35.3639 87.7109 37.7398 88.578C38.5875 88.8874 39.4709 89.0441 40.3675 89.0441C43.1501 89.0441 45.6903 87.517 47.0398 85.1454C48.4424 87.0284 50.6621 88.2659 53.1811 88.2659C56.9769 88.2659 60.117 85.4867 60.7355 81.855C61.9659 82.669 63.4214 83.1443 64.9564 83.1443C65.8531 83.1443 66.7378 82.9877 67.5854 82.6769C69.5137 81.9732 71.054 80.559 71.9215 78.6933C72.6009 77.23 72.7863 75.63 72.5042 74.0724C73.0803 74.2091 73.671 74.2901 74.2763 74.2901C76.0775 74.2901 77.831 73.6501 79.2137 72.4869C82.1168 70.0436 82.7432 65.8967 80.897 62.7178C83.2889 62.435 85.4463 61.0407 86.6635 58.9241C87.6899 57.1421 87.964 55.0666 87.4316 53.0775C87.0131 51.5132 86.1244 50.1655 84.9047 49.155C87.0184 48.0927 88.6037 46.0982 89.0395 43.6231H89.0408Z" fill="#16120B"/>
<path d="M115.604 85.8718L121.24 129.337H96.37C96.3608 129.335 96.529 75.61 96.529 75.61L92.4803 69.9002C91.8737 69.045 91.924 67.8619 92.7372 66.9975C92.8749 66.8514 93.0471 66.7372 93.2299 66.6535C94.9145 65.8807 96.8376 66.0799 98.3209 67.1661L105.683 72.5572C105.699 72.5679 105.706 72.5851 105.72 72.5971L115.604 85.8691V85.8718Z" fill="white"/>
<path d="M96.2403 129.918C96.2403 129.918 96.2336 129.918 96.231 129.918C95.9105 129.913 95.6549 129.649 95.6602 129.328L96.5515 75.5994L92.5015 69.8883C92.1094 69.3359 91.9942 68.6454 92.1849 67.9961C92.3756 67.3454 92.8445 66.8289 93.4722 66.5766C95.092 65.9272 96.8998 66.1556 98.3076 67.1861L105.67 72.5772C105.928 72.7671 105.985 73.1309 105.796 73.3899C105.606 73.6488 105.244 73.7059 104.984 73.516L97.6216 68.1249C96.5382 67.3308 95.1476 67.1555 93.9027 67.6561C93.6073 67.7743 93.3861 68.0173 93.2974 68.3227C93.2074 68.6281 93.2617 68.9521 93.4458 69.2124L97.6057 75.0789C97.6772 75.1798 97.7156 75.302 97.713 75.4255L96.819 129.345C96.8137 129.663 96.5555 129.917 96.2389 129.917L96.2403 129.918Z" fill="#16120B"/>
<path d="M123.357 81.9931C106.259 81.9931 92.3491 68.0465 92.3491 50.9038C92.3491 33.761 106.259 19.8144 123.357 19.8144C140.456 19.8144 154.366 33.761 154.366 50.9038C154.366 68.0465 140.456 81.9931 123.357 81.9931ZM123.357 33.2577C113.652 33.2577 105.757 41.1732 105.757 50.9038C105.757 60.6344 113.652 68.5498 123.357 68.5498C133.063 68.5498 140.958 60.6344 140.958 50.9038C140.958 41.1732 133.063 33.2577 123.357 33.2577Z" fill="white"/>
<path d="M123.357 20.396C140.162 20.396 153.784 34.0545 153.784 50.9024C153.784 67.7504 140.162 81.4088 123.357 81.4088C106.553 81.4088 92.9306 67.7504 92.9306 50.9024C92.9306 34.0545 106.553 20.396 123.357 20.396ZM123.357 69.1314C133.398 69.1314 141.538 60.9703 141.538 50.9038C141.538 40.8372 133.398 32.6761 123.357 32.6761C113.317 32.6761 105.177 40.8372 105.177 50.9038C105.177 60.9703 113.317 69.1314 123.357 69.1314ZM123.357 19.2328C105.939 19.2328 91.769 33.4397 91.769 50.9038C91.769 68.3679 105.94 82.5747 123.357 82.5747C140.775 82.5747 154.946 68.3679 154.946 50.9038C154.946 33.4397 140.775 19.2328 123.357 19.2328ZM123.357 67.9682C113.973 67.9682 106.338 60.313 106.338 50.9038C106.338 41.4945 113.973 33.8393 123.357 33.8393C132.742 33.8393 140.377 41.4945 140.377 50.9038C140.377 60.313 132.742 67.9682 123.357 67.9682Z" fill="#16120B"/>
<path d="M123.357 20.396C123.169 20.396 122.984 20.4067 122.796 20.4106V32.6894C122.983 32.6841 123.169 32.6748 123.357 32.6748C133.398 32.6748 141.538 40.8359 141.538 50.9024C141.538 54.2725 140.621 57.4262 139.032 60.1351L149.636 66.2738C152.269 61.7591 153.784 56.51 153.784 50.9024C153.784 34.0545 140.162 20.396 123.357 20.396Z" fill="#EC5F82"/>
<path d="M98.9632 34.3997L108.31 40.6739C111.476 36.0011 116.751 32.8846 122.764 32.6907V20.412C112.511 20.6098 103.495 25.8828 98.1315 33.8407L98.9632 34.3997Z" fill="#16120B"/>
<path d="M166.912 2.0874H137.568C133.011 2.0874 129.317 5.79082 129.317 10.36V16.5319C129.317 21.0998 133.011 24.8032 137.568 24.8032H138.31V33.1117L147.327 24.8032H166.911C171.468 24.8032 175.162 21.0998 175.162 16.5319V10.36C175.162 5.79215 171.468 2.0874 166.911 2.0874H166.912Z" fill="white"/>
<path d="M138.31 33.6933C138.231 33.6933 138.151 33.6773 138.077 33.6441C137.866 33.5512 137.73 33.3427 137.73 33.1117V25.3861H137.568C132.698 25.3861 128.737 21.4145 128.737 16.5319V10.36C128.737 5.47745 132.698 1.5058 137.568 1.5058H166.912C171.782 1.5058 175.743 5.47745 175.743 10.36V16.5319C175.743 21.4145 171.782 25.3861 166.912 25.3861H147.553L138.702 33.5406C138.592 33.6415 138.452 33.6946 138.309 33.6946L138.31 33.6933ZM137.568 2.67034C133.34 2.67034 129.899 6.12013 129.899 10.36V16.5319C129.899 20.7718 133.34 24.2216 137.568 24.2216H138.31C138.631 24.2216 138.89 24.4819 138.89 24.8032V31.7865L146.935 24.3756C147.042 24.2774 147.182 24.2216 147.328 24.2216H166.912C171.141 24.2216 174.582 20.7718 174.582 16.5319V10.36C174.582 6.12013 171.141 2.67034 166.912 2.67034H137.568Z" fill="#16120B"/>
<path d="M164.01 11.0054H140.824C140.503 11.0054 140.244 10.7451 140.244 10.4238C140.244 10.1024 140.503 9.84216 140.824 9.84216H164.01C164.331 9.84216 164.59 10.1024 164.59 10.4238C164.59 10.7451 164.331 11.0054 164.01 11.0054Z" fill="#16120B"/>
<path d="M164.01 16.5572H140.824C140.503 16.5572 140.244 16.2969 140.244 15.9756C140.244 15.6542 140.503 15.394 140.824 15.394H164.01C164.331 15.394 164.59 15.6542 164.59 15.9756C164.59 16.2969 164.331 16.5572 164.01 16.5572Z" fill="#16120B"/>
<path d="M68.9879 40.9285C72.8213 30.6049 67.0411 18.9185 56.0774 14.8261C45.1137 10.7338 33.1184 15.7852 29.285 26.1087C25.4516 36.4323 31.2318 48.1187 42.1955 52.2111C53.1591 56.3035 65.1545 51.2521 68.9879 40.9285Z" fill="#16120B"/>
<path d="M40.2601 87.8224H63.7975L63.7975 42.7812H40.2601L40.2601 87.8224Z" fill="white"/>
<path d="M63.7975 88.4053H40.2615C39.941 88.4053 39.6814 88.1451 39.6814 87.8237V42.7825C39.6814 42.4612 39.941 42.2009 40.2615 42.2009H63.7975C64.118 42.2009 64.3776 42.4612 64.3776 42.7825V87.8237C64.3776 88.1451 64.118 88.4053 63.7975 88.4053ZM40.8416 87.2408H63.2174V43.3628H40.8416V87.2408Z" fill="#16120B"/>
<path d="M63.53 69.8285C57.2483 68.3917 51.8342 63.8212 49.6039 57.2576L47.551 51.2158L63.53 45.7343V69.8285Z" fill="#16120B"/>
<path d="M43.9314 34.64C44.8175 28.1295 49.9932 22.7875 56.8033 21.9868C64.8769 21.0374 72.1903 26.8308 73.1359 34.9255L73.3253 36.5442C74.953 36.5309 76.3609 37.7393 76.5423 39.3964C76.7224 41.0377 75.6325 42.5103 74.0644 42.8701L74.7252 48.5162C75.6722 56.6109 69.8951 63.9434 61.8202 64.8928C53.7466 65.8422 46.4332 60.0501 45.4863 51.9541L44.9181 47.0954L42.0018 46.3173C38.8364 45.4728 36.9531 42.2155 37.7941 39.0419C38.5371 36.2428 41.1502 34.4475 43.9288 34.64H43.9314Z" fill="white"/>
<path d="M60.0958 65.5753C52.4487 65.5753 45.824 59.819 44.9115 52.0218L44.3896 47.5562L41.8547 46.8803C38.3848 45.9548 36.3134 42.3709 37.2365 38.8919C37.9901 36.0502 40.5475 34.0823 43.4361 34.0438C44.5751 27.3646 49.9747 22.2032 56.7358 21.4092C60.7937 20.9325 64.7961 22.0678 68.0025 24.608C71.2089 27.1482 73.2366 30.7879 73.7133 34.8578L73.8458 35.9945C75.5609 36.2149 76.9277 37.572 77.1197 39.334C77.3091 41.0669 76.2906 42.6803 74.6987 43.2858L75.3026 48.4498C76.2853 56.8499 70.2672 64.4865 61.889 65.4718C61.2864 65.5421 60.6878 65.5767 60.0958 65.5767V65.5753ZM43.5222 35.207C41.1197 35.207 38.9821 36.8337 38.357 39.1906C37.5981 42.0495 39.3013 44.9934 42.1527 45.7543L45.0691 46.5324C45.2995 46.5935 45.469 46.79 45.4955 47.0264L46.0637 51.885C46.9722 59.6477 54.0101 65.2248 61.7526 64.3125C69.4951 63.4016 75.0563 56.3453 74.1491 48.5826L73.4882 42.9365C73.4538 42.6418 73.6458 42.3682 73.9345 42.3018C75.2364 42.003 76.1092 40.7801 75.9648 39.4589C75.8191 38.1243 74.6974 37.1245 73.3505 37.1245C73.3412 37.1245 73.3319 37.1245 73.324 37.1245C73.0299 37.1245 72.7823 36.904 72.7478 36.6106L72.5585 34.9919C72.1188 31.2314 70.2447 27.8679 67.2807 25.5202C64.318 23.1726 60.6202 22.1236 56.8682 22.5644C50.4581 23.3186 45.3737 28.3154 44.5035 34.7184C44.4625 35.0225 44.1936 35.2416 43.889 35.2203C43.7658 35.2123 43.6427 35.207 43.5195 35.207H43.5222Z" fill="#16120B"/>
<path d="M43.9976 42.9578C43.9711 42.9578 43.9446 42.9565 43.9181 42.9525C43.6003 42.9087 43.3778 42.6152 43.4215 42.2965C43.7022 40.245 42.0269 39.2544 41.9554 39.2132C41.6786 39.0539 41.5805 38.6993 41.7381 38.4205C41.8958 38.1416 42.248 38.0434 42.5248 38.2001C42.6242 38.2558 44.9604 39.6063 44.5711 42.4559C44.5313 42.748 44.2823 42.9591 43.9963 42.9591L43.9976 42.9578Z" fill="#16120B"/>
<path d="M69.3772 45.664C68.3084 45.664 66.8304 45.1992 65.6225 43.0945C65.4623 42.8157 65.5589 42.4598 65.8357 42.3005C66.1139 42.1398 66.4688 42.2367 66.6277 42.5143C68.1919 45.2404 70.0831 44.433 70.2937 44.3308C70.5798 44.1927 70.9281 44.3122 71.0685 44.599C71.2089 44.8858 71.0936 45.2311 70.8089 45.3745C70.7957 45.3811 70.2103 45.664 69.3759 45.664H69.3772Z" fill="#16120B"/>
<path d="M69.5759 36.6557C69.5415 37.4817 68.9627 38.1297 68.2806 38.1005C67.5986 38.0712 67.0741 37.3794 67.1072 36.5535C67.1416 35.7276 67.7204 35.0796 68.4025 35.1088C69.0845 35.138 69.609 35.8298 69.5759 36.6557Z" fill="#16120B"/>
<path d="M68.27 31.501C68.4846 31.9723 67.6052 32.8368 66.3046 33.433C65.004 34.0292 63.7763 34.1315 63.5604 33.6601C63.3459 33.1887 64.2253 32.3242 65.5258 31.728C66.8264 31.1318 68.0541 31.0296 68.27 31.501Z" fill="#16120B"/>
<path d="M13.7045 130.131H102.498L64.8041 83.4643C60.5567 78.2073 54.2009 75.1121 47.453 75.0191C37.3028 74.8784 28.2902 81.5004 25.3672 91.2456L13.7045 130.131Z" fill="#EC5F82"/>
<path d="M140.034 79.6667C138.869 78.8115 137.451 78.4025 136.036 78.4477L138.544 75.9858C138.759 75.7747 138.923 75.5118 139.001 75.2223C139.344 73.9449 138.631 72.8401 137.567 72.5227L138.341 71.7632C138.548 71.56 138.71 71.3077 138.789 71.0289C139.172 69.6851 138.367 68.4993 137.203 68.251C136.146 68.0239 135.059 68.0518 134.028 68.3028C134.169 67.5339 133.914 66.6854 133.05 66.0799C132.922 65.991 132.774 65.9285 132.624 65.89C130.378 65.327 127.966 65.9073 126.221 67.4197L115.734 76.5024C115.718 76.4931 115.708 76.4771 115.691 76.4692L107.474 72.5081C105.818 71.7101 103.891 71.8654 102.375 72.9317C102.211 73.0472 102.062 73.1906 101.952 73.3606C101.31 74.3578 101.474 75.5304 102.227 76.2607L107.242 81.1379C107.242 81.1379 115.954 129.337 115.963 129.337H141.253L127.858 87.752L139.493 82.9704C140.534 82.5428 141.073 81.28 140.422 80.0982C140.328 79.9269 140.188 79.7822 140.03 79.6667H140.034Z" fill="white"/>
<path d="M113.357 79.9442C113.194 79.9442 113.032 79.8765 112.917 79.7423C112.708 79.4993 112.734 79.1315 112.977 78.9217L126.237 67.437C127.915 65.983 130.211 65.3921 132.382 65.8568C133.141 66.0188 133.746 66.5845 133.962 67.3308C134.178 68.077 133.967 68.8791 133.414 69.4235L122.862 79.7782C122.633 80.0026 122.266 79.9999 122.041 79.7689C121.817 79.5392 121.821 79.1714 122.05 78.9456L132.602 68.5909C132.853 68.3439 132.946 67.9934 132.848 67.6548C132.75 67.3148 132.485 67.0679 132.141 66.9948C130.326 66.6058 128.402 67.1011 126.998 68.3174L113.738 79.8021C113.628 79.8964 113.493 79.9442 113.359 79.9442H113.357Z" fill="#16120B"/>
<path d="M126.937 82.5601C126.786 82.5601 126.634 82.5003 126.52 82.3821C126.298 82.1511 126.303 81.7833 126.533 81.5589L137.42 71.0036C137.67 70.7593 137.762 70.4088 137.664 70.0688C137.566 69.7289 137.301 69.4819 136.956 69.4089C135.604 69.1194 134.183 69.3119 132.957 69.9533C132.672 70.102 132.322 69.9905 132.174 69.7063C132.026 69.4208 132.137 69.0703 132.42 68.9216C133.886 68.1554 135.584 67.9243 137.2 68.2709C137.959 68.4329 138.564 68.9986 138.78 69.7448C138.996 70.4911 138.785 71.2931 138.231 71.8375L127.343 82.3954C127.23 82.5043 127.084 82.5587 126.939 82.5587L126.937 82.5601Z" fill="#16120B"/>
<path d="M129.146 83.9689C128.983 83.9689 128.823 83.9012 128.708 83.7684C128.497 83.5254 128.524 83.1589 128.765 82.9478L137.644 75.209C137.87 74.9846 137.963 74.6354 137.865 74.2954C137.767 73.9555 137.502 73.7098 137.158 73.6355C136.866 73.5731 136.568 73.5319 136.272 73.5146C135.951 73.4947 135.707 73.2199 135.727 72.8985C135.746 72.5772 136.024 72.3328 136.342 72.3528C136.697 72.374 137.053 72.4231 137.401 72.4975C138.16 72.6595 138.766 73.2252 138.981 73.9714C139.197 74.719 138.987 75.5197 138.433 76.0641L129.529 83.8255C129.419 83.9211 129.283 83.9689 129.149 83.9689H129.146Z" fill="#16120B"/>
<path d="M140.72 129.918C140.478 129.918 140.252 129.766 140.171 129.521L129.615 98.0868L126.59 87.5502C126.508 87.2647 126.654 86.9633 126.928 86.8504L139.046 81.8696C139.313 81.7607 139.49 81.523 139.519 81.2362C139.548 80.9494 139.424 80.6811 139.185 80.5178C137.791 79.571 135.673 79.2577 134.147 79.7768C133.845 79.8804 133.514 79.7171 133.411 79.413C133.308 79.1089 133.471 78.7783 133.775 78.6747C135.645 78.0387 138.139 78.3999 139.837 79.5551C140.426 79.9561 140.747 80.6466 140.674 81.357C140.6 82.0674 140.146 82.6769 139.486 82.9478L127.849 87.7308L130.721 97.7415L141.269 129.151C141.371 129.455 141.208 129.786 140.903 129.888C140.842 129.909 140.78 129.918 140.718 129.918H140.72Z" fill="#16120B"/>
<path d="M115.831 129.918C115.551 129.918 115.306 129.717 115.259 129.431L107.262 81.1207L102.245 76.2434C101.76 75.772 101.522 75.1147 101.591 74.4402C101.661 73.7656 102.028 73.1721 102.6 72.8096C104.074 71.8761 105.894 71.7712 107.466 72.528L115.682 76.4877C115.971 76.6272 116.093 76.9751 115.954 77.2646C115.815 77.554 115.468 77.6762 115.179 77.5368L106.963 73.5757C105.753 72.9928 104.355 73.0738 103.22 73.7922C102.951 73.9621 102.779 74.2423 102.746 74.5584C102.713 74.8757 102.825 75.1838 103.053 75.4055L108.208 80.4169C108.296 80.5032 108.356 80.6161 108.376 80.7396L116.404 129.239C116.457 129.556 116.243 129.855 115.926 129.908C115.894 129.913 115.863 129.916 115.831 129.916V129.918Z" fill="#16120B"/>
<path d="M46.0226 10.4795C35.4618 12.0995 27.3591 19.8516 24.7487 29.5702C25.8876 30.1107 27.1803 30.3152 28.4636 30.1186C29.2146 30.0031 29.9337 29.7442 30.5946 29.375C30.6237 29.6844 30.6515 29.9938 30.727 30.3005C31.1323 31.967 32.16 33.3746 33.6222 34.2669C34.9069 35.049 36.4313 35.3557 37.9159 35.1273C39.4363 34.8936 40.7833 34.1089 41.7713 32.9642C42.6083 34.7423 44.2254 36.1246 46.2928 36.5389C47.0292 36.6863 47.7775 36.7035 48.5152 36.5906C50.8077 36.2388 52.7069 34.6599 53.5214 32.5353C54.9134 33.9084 56.8973 34.648 58.9727 34.3293C62.0996 33.8499 64.3365 31.1637 64.3895 28.0936C65.5047 28.6088 66.7642 28.816 68.029 28.6221C68.768 28.5093 69.4766 28.2676 70.1361 27.9051C71.5771 27.1137 72.6339 25.8243 73.1412 24.2654C68.119 14.5985 57.3701 8.73733 46.0253 10.4782L46.0226 10.4795Z" fill="#16120B"/>
<path d="M61.7672 130.411C61.5606 130.411 61.3619 130.301 61.2573 130.107L54.2022 117.09C54.0485 116.807 54.1532 116.454 54.4353 116.301C54.7174 116.147 55.0697 116.252 55.222 116.535L62.2771 129.552C62.4307 129.835 62.3261 130.188 62.044 130.341C61.9553 130.388 61.8612 130.411 61.7672 130.411Z" fill="#16120B"/>
</svg>
