<svg width="193" height="165" viewBox="0 0 193 165" fill="none" xmlns="http://www.w3.org/2000/svg">
<path d="M46.909 88.2088L32.1459 91.4099C24.9265 92.9748 18.8356 97.7724 15.6371 104.412L2.29636 132.109C-6.20766 149.762 10.2878 169.112 29.1315 163.588L50.2955 157.384H119.583L107.519 98.7668C105.35 88.2273 95.3161 81.2032 84.6374 82.7483L46.9077 88.2101L46.909 88.2088Z" fill="#16120B"/>
<path d="M131.798 122.858L131.965 109.08C132.041 102.87 134.552 96.9365 138.961 92.5496L151.585 79.9896C152.701 78.879 154.382 78.5528 155.835 79.1643C158.072 80.1071 158.9 82.8447 157.559 84.8625L150.68 95.2197L166.998 100.822L186.911 94.4525C188.752 93.8635 190.749 94.6902 191.631 96.4043C192.175 97.4621 191.729 98.7589 190.648 99.2594L154.602 115.965L152.826 125.928L131.797 122.855L131.798 122.858Z" fill="white"/>
<path d="M152.829 126.594C152.79 126.594 152.75 126.59 152.712 126.583C152.35 126.519 152.109 126.175 152.173 125.815L153.949 115.851C153.987 115.638 154.126 115.456 154.324 115.365L190.37 98.6598C190.728 98.4948 190.994 98.1989 191.122 97.8265C191.251 97.4555 191.222 97.058 191.042 96.708C190.304 95.2752 188.654 94.5938 187.116 95.0851L167.204 101.454C167.067 101.498 166.92 101.496 166.784 101.45L150.466 95.8483C150.271 95.781 150.119 95.6291 150.053 95.435C149.986 95.2409 150.014 95.0269 150.128 94.8553L157.007 84.498C157.537 83.7004 157.681 82.7179 157.404 81.8028C157.128 80.8876 156.461 80.1481 155.578 79.7757C154.369 79.2659 152.986 79.534 152.056 80.4597L139.432 93.0197C135.121 97.3089 132.705 103.016 132.633 109.088L132.466 122.866C132.462 123.232 132.156 123.524 131.793 123.521C131.426 123.517 131.132 123.216 131.136 122.85L131.303 109.073C131.381 102.651 133.935 96.6169 138.493 92.0808L151.117 79.5208C152.431 78.2134 154.386 77.8344 156.097 78.5541C157.346 79.0811 158.288 80.1243 158.678 81.4198C159.07 82.7139 158.865 84.1032 158.117 85.2309L151.712 94.8738L167.009 100.126L186.711 93.8239C188.871 93.1332 191.19 94.092 192.227 96.1045C192.574 96.778 192.628 97.5426 192.382 98.2584C192.136 98.9741 191.62 99.5446 190.932 99.8629L155.199 116.421L153.484 126.046C153.427 126.367 153.146 126.593 152.83 126.593L152.829 126.594Z" fill="#16120B"/>
<path d="M175.828 101.866L184.169 89.2561C184.94 88.09 184.063 86.5449 182.664 86.603C180.88 86.6783 179.209 87.4957 178.06 88.8572L168.123 99.9553L175.828 101.866Z" fill="white"/>
<path d="M175.828 102.529C175.702 102.529 175.575 102.493 175.463 102.419C175.155 102.217 175.072 101.807 175.273 101.5L183.614 88.8903C183.836 88.5548 183.85 88.1455 183.652 87.7968C183.453 87.4469 183.094 87.2475 182.693 87.266C181.099 87.3333 179.596 88.0689 178.57 89.2851C178.566 89.2904 178.562 89.2944 178.557 89.2996L168.619 100.398C168.374 100.671 167.955 100.695 167.68 100.451C167.406 100.206 167.382 99.7876 167.628 99.5142L177.558 88.4241C178.824 86.9292 180.674 86.0246 182.636 85.9414C183.532 85.9031 184.367 86.3653 184.809 87.1445C185.251 87.9236 185.22 88.8731 184.724 89.6218L176.383 102.232C176.255 102.425 176.043 102.53 175.827 102.53L175.828 102.529Z" fill="#16120B"/>
<path d="M149.148 107.578L160.968 102.278L168.051 89.882C169.018 88.189 170.809 87.1312 172.761 87.0969C174.024 87.0745 174.904 88.3409 174.44 89.5122L167.989 105.799L149.148 107.579V107.578Z" fill="white"/>
<path d="M149.149 108.241C148.895 108.241 148.653 108.095 148.543 107.85C148.392 107.516 148.543 107.123 148.877 106.973L160.498 101.762L167.474 89.5532C168.552 87.6674 170.573 86.4709 172.75 86.4326C173.566 86.4181 174.332 86.809 174.796 87.4772C175.261 88.1467 175.361 88.9972 175.06 89.7539L168.609 106.04C168.474 106.381 168.088 106.549 167.745 106.414C167.404 106.279 167.235 105.894 167.371 105.553L173.822 89.2666C173.959 88.918 173.916 88.5403 173.703 88.2326C173.488 87.9249 173.152 87.7506 172.773 87.7585C171.063 87.7889 169.475 88.7278 168.629 90.2095L161.546 102.606C161.476 102.727 161.37 102.825 161.241 102.882L149.421 108.181C149.332 108.221 149.239 108.239 149.148 108.239L149.149 108.241Z" fill="#16120B"/>
<path d="M40.1459 69.2579C45.0661 64.3519 45.0661 56.3977 40.1459 51.4917C35.2256 46.5857 27.2483 46.5857 22.3281 51.4917C17.4078 56.3977 17.4078 64.3519 22.3281 69.2579C27.2483 74.1639 35.2256 74.1639 40.1459 69.2579Z" fill="#16120B"/>
<path d="M42.3345 78.2385C49.2928 78.2385 54.9336 72.6141 54.9336 65.6759C54.9336 58.7378 49.2928 53.1133 42.3345 53.1133C35.3762 53.1133 29.7354 58.7378 29.7354 65.6759C29.7354 72.6141 35.3762 78.2385 42.3345 78.2385Z" fill="#16120B"/>
<path d="M88.6939 67.8752C93.6141 62.9692 93.6141 55.015 88.6939 50.109C83.7736 45.203 75.7963 45.203 70.8761 50.109C65.9558 55.015 65.9558 62.9692 70.8761 67.8752C75.7963 72.7812 83.7736 72.7812 88.6939 67.8752Z" fill="#16120B"/>
<path d="M83.1951 58.9014C90.1534 58.9014 95.7942 53.2769 95.7942 46.3388C95.7942 39.4006 90.1534 33.7762 83.1951 33.7762C76.2368 33.7762 70.596 39.4006 70.596 46.3388C70.596 53.2769 76.2368 58.9014 83.1951 58.9014Z" fill="#16120B"/>
<path d="M75.757 50.1434L46.0581 54.733L52.1459 93.8984L81.8447 89.3088L75.757 50.1434Z" fill="white"/>
<path d="M52.1431 94.5634C51.8212 94.5634 51.5378 94.3296 51.4861 94.0021L45.3992 54.8367C45.3727 54.6624 45.4151 54.4854 45.5197 54.3441C45.6243 54.2015 45.7806 54.1077 45.9541 54.08L75.6526 49.491C75.8261 49.4646 76.0049 49.5069 76.1466 49.6112C76.2883 49.7155 76.3837 49.8713 76.4115 50.0443L82.4985 89.2098C82.525 89.3841 82.4826 89.5611 82.378 89.7024C82.2733 89.8437 82.117 89.9388 81.9435 89.9665L52.245 94.5555C52.2106 94.5607 52.1762 94.5634 52.1417 94.5634H52.1431ZM46.8163 55.2883L52.6993 93.1425L81.084 88.7568L75.201 50.9027L46.8163 55.2883Z" fill="#16120B"/>
<path d="M78.1436 77.9906L52.2376 81.994C49.1367 82.4732 47.0125 85.3682 47.4931 88.4601L47.7582 90.1657C48.2388 93.2576 51.1422 95.3757 54.2431 94.8964L80.1491 90.893C83.25 90.4138 85.3742 87.5188 84.8936 84.4269L84.6285 82.7213C84.1479 79.6294 81.2445 77.5113 78.1436 77.9906Z" fill="#16120B"/>
<path d="M80.3636 38.3929C80.3636 25.5559 69.9269 15.1495 57.0527 15.1495C44.1784 15.1495 33.7418 25.5559 33.7418 38.3929V45.7749C33.7418 58.6118 44.1784 69.0182 57.0527 69.0182C69.9269 69.0182 80.3636 58.6118 80.3636 45.7749V38.3929Z" fill="#16120B"/>
<path d="M62.7595 13.075H62.7582C52.0147 13.075 43.3053 21.7591 43.3053 32.4715V36.4398C43.3053 47.1522 52.0147 55.8363 62.7582 55.8363H62.7595C73.5031 55.8363 82.2124 47.1522 82.2124 36.4398V32.4715C82.2124 21.7591 73.5031 13.075 62.7595 13.075Z" fill="#16120B"/>
<path d="M60.7133 69.6812C49.5114 69.6812 40.3982 60.5943 40.3982 49.4249C40.3982 49.0592 40.6962 48.762 41.063 48.762C41.4299 48.762 41.7279 49.0592 41.7279 49.4249C41.7279 59.8627 50.2452 68.3553 60.7133 68.3553C65.0706 68.3553 69.3272 66.8472 72.6978 64.1071C72.9826 63.876 73.4011 63.9182 73.6342 64.2021C73.866 64.4861 73.8236 64.9034 73.5388 65.1358C69.9312 68.0674 65.3765 69.6812 60.7133 69.6812Z" fill="#16120B"/>
<path d="M79.9 39.254C79.5808 39.254 79.2987 39.0242 79.2444 38.6993C78.7133 35.5247 81.2972 33.9387 81.4072 33.8726C81.7224 33.6838 82.1303 33.7855 82.3197 34.0998C82.5077 34.4128 82.4071 34.8195 82.0945 35.0083C82.0098 35.0612 80.1781 36.2153 80.5569 38.4814C80.6178 38.8433 80.3728 39.184 80.0099 39.2447C79.9728 39.2513 79.9357 39.254 79.9 39.254Z" fill="#16120B"/>
<path d="M86.2492 35.2051C85.485 32.6418 82.7819 31.1826 80.2125 31.9446L77.3571 32.7911C73.8806 27.2764 67.7274 23.6091 60.7133 23.6091C50.2452 23.6091 41.6922 31.7716 41.0988 42.0615L38.3149 42.01C35.6343 41.9611 33.4212 44.0872 33.3722 46.76C33.3232 49.4329 35.4555 51.6396 38.1374 51.6897L41.2061 51.7465C42.3583 61.4725 50.6505 69.0196 60.7146 69.0196C71.5668 69.0196 80.3649 60.247 80.3649 49.4263V43.2024C80.3649 42.8023 80.349 42.4061 80.3251 42.0113L82.9806 41.2242C85.5512 40.4622 87.0147 37.7683 86.2505 35.2051H86.2492Z" fill="white"/>
<path d="M60.7133 69.6812C50.616 69.6812 42.0789 62.2913 40.6207 52.3976L38.1242 52.3513C35.0807 52.2959 32.6505 49.7815 32.7074 46.7468C32.763 43.7122 35.2821 41.2876 38.3282 41.3457L40.483 41.3853C41.4074 30.9938 50.1737 22.9449 60.7147 22.9449C67.5724 22.9449 73.8647 26.3255 77.6472 32.0132L80.0245 31.3081C81.4377 30.8894 82.9303 31.0439 84.2269 31.7438C85.5235 32.4437 86.4691 33.6058 86.8889 35.0149C87.7564 37.9241 86.0877 40.9944 83.1713 41.8594L81.0178 42.4986C81.0271 42.7468 81.0324 42.9793 81.0324 43.2024V49.4263C81.0324 60.5957 71.9191 69.6825 60.7173 69.6825L60.7133 69.6812ZM38.2236 42.6716C35.9496 42.6716 34.0782 44.4953 34.0358 46.7719C33.9934 49.075 35.8383 50.9832 38.1481 51.0255L41.2167 51.0823C41.5491 51.0889 41.8259 51.3385 41.8657 51.6673C42.9928 61.1807 51.0955 68.3553 60.7133 68.3553C71.1814 68.3553 79.6987 59.8627 79.6987 49.425V43.2011C79.6987 42.8551 79.6868 42.4788 79.6603 42.0509C79.6418 41.7432 79.8378 41.4632 80.1344 41.3761L82.7899 40.589C85.0043 39.9327 86.2704 37.6019 85.6122 35.3952C85.293 34.3256 84.5752 33.4434 83.5911 32.9126C82.6071 32.3817 81.4748 32.2641 80.402 32.5811L77.5465 33.4276C77.2605 33.5121 76.9532 33.3972 76.7943 33.145C73.2912 27.5893 67.2797 24.2734 60.7133 24.2734C50.6624 24.2734 42.3385 32.1044 41.7624 42.1011C41.7425 42.4563 41.4432 42.731 41.0856 42.7257L38.3017 42.6742C38.2752 42.6742 38.2487 42.6742 38.2236 42.6742V42.6716Z" fill="#16120B"/>
<path d="M40.3943 48.9945C40.0579 48.9945 39.7691 48.7409 39.7334 48.4016C39.491 46.113 37.409 45.4897 37.3203 45.4646C36.968 45.3642 36.7627 44.9984 36.8621 44.6472C36.9614 44.2959 37.3256 44.0899 37.6779 44.1876C37.8024 44.222 40.7161 45.0618 41.0565 48.2629C41.0949 48.6274 40.83 48.9536 40.4644 48.9918C40.4406 48.9945 40.4168 48.9958 40.3943 48.9958V48.9945Z" fill="#16120B"/>
<path d="M55.1905 37.7102C55.4806 38.4629 54.0224 39.7228 51.9325 40.5243C49.8426 41.3259 47.9142 41.3669 47.6229 40.6141C47.3328 39.8614 48.791 38.6016 50.8809 37.8C52.9708 36.9984 54.8992 36.9575 55.1905 37.7102Z" fill="#16120B"/>
<path d="M70.2027 36.6313C70.1471 37.4355 68.2916 37.9638 66.0573 37.8106C63.823 37.6574 62.0576 36.8809 62.1132 36.0767C62.1688 35.2724 64.0243 34.7442 66.2586 34.8974C68.4929 35.0506 70.2583 35.8271 70.2027 36.6313Z" fill="#16120B"/>
<path d="M49.8624 45.6059C49.7326 45.6059 49.6002 45.5676 49.485 45.4884C49.183 45.2797 49.1075 44.8677 49.3154 44.5653C51.1378 41.9347 54.1376 42.6729 55.4673 43.4309C55.7865 43.6132 55.8978 44.0173 55.715 44.3355C55.5335 44.6525 55.1283 44.7634 54.8091 44.5838C54.7919 44.5745 54.0476 44.1638 53.1231 44.0701C51.9775 43.9539 51.065 44.3738 50.4094 45.3193C50.2809 45.5055 50.073 45.6059 49.8611 45.6059H49.8624Z" fill="#16120B"/>
<path d="M66.7722 43.4815C67.4568 43.3324 67.8213 42.3422 67.5864 41.2699C67.3515 40.1975 66.6062 39.449 65.9216 39.5981C65.237 39.7472 64.8724 40.7374 65.1073 41.8097C65.3422 42.8821 66.0876 43.6306 66.7722 43.4815Z" fill="#16120B"/>
<path d="M61.2007 50.2213C61.1782 50.2213 61.1543 50.2213 61.1318 50.2173C60.2034 50.1222 59.3545 49.6363 58.8035 48.8862C58.2526 48.1361 58.0446 47.1827 58.2327 46.2715L59.3041 41.1014C59.3783 40.7422 59.7306 40.5125 60.0895 40.5864C60.4497 40.6604 60.6802 41.0116 60.606 41.3708L59.5346 46.5409C59.4207 47.0929 59.5412 47.6488 59.875 48.1031C60.2087 48.5587 60.704 48.8413 61.2669 48.8981C61.6324 48.9351 61.8987 49.2612 61.8602 49.6257C61.8245 49.9664 61.5358 50.2213 61.1994 50.2213H61.2007Z" fill="#16120B"/>
<path d="M64.4309 55.6567C64.1011 55.6567 63.8151 55.4124 63.7727 55.0783C63.7263 54.7152 63.9833 54.3824 64.3475 54.3362C65.3289 54.2094 66.0229 53.8225 66.4679 53.1529C67.5552 51.5167 66.8029 48.7634 66.795 48.7356C66.6956 48.383 66.9023 48.0172 67.2559 47.9182C67.6095 47.8192 67.9764 48.0238 68.0757 48.3764C68.1141 48.5125 69.0028 51.7346 67.5803 53.8806C66.9181 54.8789 65.8878 55.4758 64.5183 55.6514C64.4892 55.6554 64.4614 55.6567 64.4322 55.6567H64.4309Z" fill="#16120B"/>
<path d="M40.0684 41.8488V41.8818C49.085 39.5365 55.7401 31.3635 55.7401 21.6375V21.6045C46.7236 23.9498 40.0684 32.1228 40.0684 41.8488Z" fill="#16120B"/>
<path d="M49.1989 39.8773C49.1207 39.8773 49.0439 39.8641 48.9684 39.8363C48.7751 39.765 48.6254 39.6092 48.5645 39.4137L48.5579 39.3926C48.4479 39.0453 48.64 38.6742 48.9883 38.562C53.9085 35.4005 56.1136 29.3338 54.3522 23.7465L54.3455 23.7254C54.2356 23.3754 54.4303 23.003 54.7813 22.8947C55.1322 22.7851 55.5057 22.9793 55.6143 23.3292L55.6209 23.3503C57.5797 29.5663 55.0832 36.321 49.5512 39.7769C49.4439 39.8443 49.3221 39.8786 49.1976 39.8786L49.1989 39.8773Z" fill="#16120B"/>
<path d="M77.2565 30.8459L77.2737 30.8749C68.334 33.4936 58.4075 29.9043 53.3854 21.5689L53.3682 21.5398C62.3079 18.9211 72.2344 22.5104 77.2565 30.8459Z" fill="#16120B"/>
<path d="M168.364 22.9079C158.784 3.28954 134.995 -4.90196 115.299 4.64708C95.6406 14.1948 87.4187 37.9188 96.9902 57.532C106.57 77.1596 130.371 85.3551 150.039 75.8113C169.716 66.253 177.935 42.5224 168.364 22.9093V22.9079ZM147.279 70.1526C130.736 78.1804 110.72 71.287 102.664 54.7799C94.6142 38.2847 101.529 18.3335 118.061 10.3031C134.627 2.2727 154.634 9.16211 162.69 25.6613C170.74 42.1566 163.828 62.1143 147.279 70.1526Z" fill="white"/>
<path d="M132.75 80.4703C128.306 80.4703 123.843 79.7294 119.513 78.2372C109.312 74.7232 101.101 67.4732 96.3915 57.8212C86.6611 37.8832 95.0115 13.7617 115.007 4.0502C135.022 -5.65203 159.225 2.67812 168.962 22.6174C178.695 42.5593 170.337 66.6888 150.332 76.4056C144.765 79.1061 138.777 80.469 132.752 80.469L132.75 80.4703ZM132.605 1.32718C126.881 1.32718 121.072 2.58568 115.589 5.24399C96.2538 14.6359 88.1775 37.9611 97.5874 57.2414C102.142 66.5739 110.083 73.5862 119.947 76.984C129.81 80.3818 140.394 79.7532 149.748 75.2144C169.094 65.8172 177.174 42.4828 167.765 23.1985C161.017 9.3787 147.083 1.32718 132.605 1.32718ZM132.739 74.1778C128.989 74.1778 125.224 73.5531 121.571 72.2946C112.966 69.3299 106.038 63.2131 102.065 55.0704C93.8566 38.2503 100.901 17.9003 117.77 9.70752C134.655 1.52262 155.075 8.54938 163.289 25.3721C171.5 42.1962 164.449 62.5528 147.571 70.7509C142.874 73.0302 137.822 74.1791 132.74 74.1791L132.739 74.1778ZM132.615 7.61706C127.817 7.61706 122.947 8.67219 118.35 10.9C102.141 18.7732 95.3717 38.3269 103.26 54.4907C107.078 62.3151 113.736 68.1929 122.004 71.0414C130.273 73.8899 139.145 73.363 146.987 69.5584C163.205 61.6812 169.981 42.1196 162.09 25.9532C156.434 14.3678 144.752 7.61838 132.615 7.61838V7.61706Z" fill="#16120B"/>
<path d="M116.648 98.1566C116.577 98.1566 116.503 98.1447 116.431 98.1197C116.084 98.0008 115.9 97.6231 116.019 97.2758L122.247 79.2751C122.366 78.9291 122.746 78.7456 123.093 78.8644C123.44 78.9833 123.624 79.361 123.505 79.7083L117.277 97.709C117.182 97.9836 116.925 98.1566 116.648 98.1566Z" fill="#16120B"/>
<path d="M110.749 96.0979C110.678 96.0979 110.604 96.086 110.532 96.0609C110.185 95.9421 110.001 95.5644 110.12 95.2171L116.348 77.2164C116.467 76.8704 116.847 76.6869 117.194 76.8057C117.541 76.9246 117.725 77.3022 117.606 77.6496L111.379 95.6502C111.283 95.9249 111.026 96.0979 110.749 96.0979Z" fill="#16120B"/>
<path d="M98.6549 138.455C93.6182 136.721 90.9456 131.245 92.6845 126.223L108.473 80.634L126.711 86.9134L110.923 132.502C109.184 137.524 103.692 140.189 98.6549 138.455Z" fill="#EC5F82"/>
<path d="M90.7562 101.926L99.941 85.6944C100.704 84.3461 102.457 83.9288 103.749 84.7899C105.764 86.1329 106.715 88.5944 106.122 90.9384L104.498 97.3538L90.7562 101.926Z" fill="white"/>
<path d="M90.7562 102.59C90.5616 102.59 90.3722 102.504 90.2424 102.348C90.0676 102.137 90.0411 101.84 90.1762 101.601L99.3609 85.3696C99.8152 84.5667 100.593 83.983 101.492 83.7691C102.391 83.5551 103.349 83.7268 104.118 84.2392C106.363 85.7341 107.427 88.4914 106.767 91.1022L105.143 97.5175C105.088 97.7367 104.923 97.9124 104.709 97.985L90.9668 102.557C90.898 102.579 90.8264 102.591 90.7562 102.591V102.59ZM102.272 85.0038C102.116 85.0038 101.958 85.0223 101.8 85.0593C101.252 85.19 100.797 85.5307 100.52 86.0206L92.184 100.75L103.942 96.8388L105.477 90.776C106 88.7093 105.157 86.5251 103.379 85.3405C103.044 85.1174 102.663 85.0025 102.272 85.0025V85.0038Z" fill="#16120B"/>
<path d="M99.3649 95.9752L121.239 90.4446C122.448 90.1382 123.644 90.9874 123.75 92.2274L123.853 93.4397C124.051 95.7401 122.84 97.9336 120.785 98.9979L115.234 101.874L114.948 102.563L122.463 101.668C124.098 101.473 125.599 102.64 125.774 104.274C126.04 106.767 124.457 109.029 122.117 109.717C123.557 109.738 124.798 110.805 124.974 112.27C125.276 114.788 123.685 117.084 121.324 117.779C122.763 117.8 124.004 118.867 124.18 120.332C124.517 123.142 122.505 125.693 119.687 126.03L104.459 127.844L103.473 130.219C102.302 133.041 99.941 135.204 97.0207 136.127L50.2969 157.382C50.2969 157.382 31.881 138.016 52.2147 122.031C52.2756 121.984 52.363 121.986 52.4385 121.965L84.9991 112.34L85.399 110.46C86.9075 103.373 92.3244 97.7553 99.3676 95.9738L99.3649 95.9752Z" fill="white"/>
<path d="M50.2956 158.047C50.1168 158.047 49.9407 157.976 49.8122 157.84C49.7248 157.747 47.6415 155.541 45.6284 151.982C43.7636 148.683 41.626 143.565 42.0353 137.909C42.4803 131.772 45.7648 126.256 51.7988 121.512C51.9723 121.376 52.1551 121.345 52.2438 121.329L52.2584 121.326L84.4256 111.817L84.7434 110.323C85.5089 106.725 87.2651 103.421 89.8225 100.767C92.38 98.1158 95.6221 96.2353 99.1993 95.3307L121.073 89.8001C121.839 89.606 122.648 89.7579 123.292 90.2148C123.935 90.6717 124.343 91.3848 124.411 92.1692L124.514 93.3815C124.735 95.958 123.391 98.3931 121.09 99.5856L117.137 101.634L122.382 101.009C123.359 100.893 124.322 101.166 125.094 101.778C125.856 102.383 126.331 103.244 126.433 104.202C126.664 106.36 125.664 108.404 123.941 109.578C124.849 110.133 125.498 111.08 125.631 112.19C125.893 114.38 124.894 116.455 123.149 117.642C124.057 118.196 124.705 119.143 124.837 120.254C125.217 123.423 122.941 126.31 119.762 126.689L104.921 128.459L104.084 130.474C102.84 133.471 100.353 135.756 97.2564 136.748L50.5684 157.986C50.4797 158.027 50.3857 158.046 50.2929 158.046L50.2956 158.047ZM52.5352 122.626C46.8667 127.109 43.7822 132.28 43.365 137.996C42.7041 147.044 48.9765 154.859 50.4664 156.577L96.7439 135.525C96.7677 135.514 96.7929 135.504 96.8194 135.496C99.5583 134.63 101.759 132.614 102.859 129.967L103.844 127.592C103.935 127.37 104.141 127.216 104.379 127.187L119.607 125.372C122.057 125.08 123.812 122.855 123.519 120.412C123.387 119.306 122.439 118.459 121.314 118.443C120.986 118.438 120.709 118.195 120.665 117.87C120.62 117.545 120.82 117.236 121.136 117.144C123.236 116.526 124.572 114.509 124.313 112.349C124.18 111.242 123.232 110.396 122.108 110.38C121.779 110.375 121.502 110.132 121.459 109.807C121.414 109.482 121.614 109.173 121.93 109.08C124.003 108.47 125.342 106.479 125.114 104.344C125.049 103.74 124.75 103.197 124.269 102.816C123.779 102.426 123.166 102.252 122.545 102.327L115.03 103.222C114.796 103.25 114.564 103.152 114.421 102.965C114.278 102.777 114.246 102.528 114.336 102.311L114.622 101.622C114.682 101.478 114.792 101.359 114.929 101.286L120.48 98.4103C122.302 97.4661 123.367 95.5367 123.192 93.4964L123.089 92.2841C123.055 91.888 122.849 91.5274 122.523 91.2977C122.198 91.0666 121.79 90.9913 121.403 91.089L99.5291 96.6196C96.1929 97.4634 93.1693 99.2158 90.7854 101.689C88.4001 104.163 86.7618 107.244 86.048 110.6L85.648 112.48C85.5977 112.717 85.4202 112.909 85.1858 112.977L52.6252 122.603C52.5921 122.612 52.5617 122.62 52.5352 122.626Z" fill="#16120B"/>
<path d="M102.946 112.753C102.614 112.753 102.326 112.505 102.287 112.168C102.243 111.805 102.504 111.475 102.868 111.431L121.192 109.247C121.557 109.203 121.888 109.463 121.931 109.827C121.975 110.19 121.714 110.52 121.35 110.563L103.026 112.748C102.999 112.75 102.973 112.753 102.946 112.753Z" fill="#16120B"/>
<path d="M103.045 104.646C102.713 104.646 102.426 104.398 102.386 104.061C102.342 103.698 102.603 103.368 102.967 103.324L122.44 101.003C122.804 100.959 123.135 101.219 123.179 101.582C123.223 101.945 122.962 102.276 122.598 102.319L103.125 104.641C103.098 104.643 103.072 104.646 103.045 104.646Z" fill="#16120B"/>
<path d="M103.529 120.606C103.196 120.606 102.909 120.358 102.869 120.021C102.826 119.658 103.086 119.328 103.451 119.285L122.923 116.963C123.288 116.919 123.619 117.18 123.662 117.543C123.706 117.906 123.445 118.236 123.081 118.28L103.608 120.601C103.582 120.604 103.555 120.606 103.529 120.606Z" fill="#16120B"/>
<path d="M19.3786 130.285C19.0766 130.285 18.8025 130.077 18.731 129.771C18.6475 129.415 18.8713 129.058 19.2289 128.975L52.0623 121.387C52.4199 121.304 52.7775 121.527 52.8609 121.883C52.9444 122.24 52.7206 122.596 52.363 122.68L19.5296 130.268C19.4792 130.28 19.4289 130.285 19.3786 130.285Z" fill="white"/>
<path d="M146.906 43.6924C145.294 50.1302 139.472 54.9067 132.516 54.9067C124.315 54.9067 117.668 48.2787 117.668 40.1018C117.668 33.0037 122.68 27.0796 129.365 25.6389V10.1935C114.19 11.765 102.357 24.5547 102.357 40.1018C102.357 56.7106 115.86 70.1738 132.516 70.1738C147.953 70.1738 160.673 58.6069 162.454 43.6924H146.906Z" fill="#EC5F82"/>
<path d="M148.028 39.8878C147.914 31.629 141.276 24.9125 133.031 24.6418V10.6966C140.717 10.8273 147.923 13.8726 153.372 19.3054C158.892 24.8095 161.954 32.111 162.009 39.8865H148.028V39.8878Z" fill="white"/>
<path d="M133.696 11.3793C137.171 11.518 140.545 12.2681 143.738 13.6138C147.171 15.0611 150.254 17.1344 152.901 19.7742C155.549 22.414 157.628 25.4883 159.08 28.9112C160.469 32.1863 161.225 35.6514 161.331 39.2223H148.67C148.458 35.2434 146.802 31.5326 143.955 28.6933C141.179 25.9254 137.573 24.2879 133.696 24.0106V11.378V11.3793ZM132.516 10.0297C132.466 10.0297 132.417 10.0337 132.366 10.0337V25.3048C132.417 25.3048 132.466 25.2968 132.516 25.2968C140.717 25.2968 147.364 31.9248 147.364 40.1018C147.364 40.2536 147.345 40.4002 147.342 40.5507H162.665C162.668 40.4002 162.677 40.2523 162.677 40.1018C162.677 23.4929 149.175 10.0297 132.517 10.0297H132.516Z" fill="#16120B"/>
<path d="M143.587 49.9413L154.428 60.7515C158.757 56.1824 161.669 50.2649 162.454 43.6937H146.906C146.315 46.0523 145.156 48.1823 143.587 49.9413Z" fill="#16120B"/>
<path d="M154.271 156.768H126.399L131.155 120.816L153.717 123.904L154.271 156.768Z" fill="#16120B"/>
</svg>
