<svg width="292" height="194" viewBox="0 0 292 194" fill="none" xmlns="http://www.w3.org/2000/svg">
<path d="M193.634 113.937C209.824 119.906 238.122 132.587 255.055 124.843C273.581 116.369 309.449 85.4186 282.031 69.5917C275.716 66.2897 266.115 66.1287 259.395 64.5333C248.956 62.0518 247.123 56.302 248.173 39.8791C249.223 23.4561 254.768 14.0228 239.018 3.93579C226.325 -4.19223 199.793 1.97879 191.506 7.14249C164.508 23.9687 170.741 59.0498 176.46 67.4758C182.179 75.9018 194.677 72.2282 195.477 83.11C195.981 89.9485 193.391 102.197 193.634 113.937Z" fill="#16120B"/>
<path d="M145.83 193.944H252.662C269.708 193.944 283.918 180.867 285.374 163.838L289.538 115.191C290.971 98.4441 280.904 82.8516 265.079 77.3065L237.907 67.7857L211.353 83.8371C199.606 90.9379 190.203 101.347 184.315 113.768L161.885 161.088L145.83 193.942V193.944Z" fill="#EC5F82"/>
<path d="M228.733 40.644L246.229 71.664C244.263 77.2728 240.837 81.6636 236.022 84.0676C231.206 86.4717 225.648 86.567 219.998 84.761L205.287 55.1378L228.735 40.644H228.733Z" fill="white"/>
<path d="M227.55 86.9167C225.034 86.9167 222.404 86.4895 219.719 85.6293C219.483 85.5538 219.291 85.3869 219.18 85.1663L204.468 55.5431C204.244 55.0921 204.427 54.5437 204.878 54.3172C205.328 54.0927 205.875 54.2775 206.101 54.7285L220.64 84.0021C226.112 85.671 231.282 85.4107 235.615 83.2471C239.941 81.0874 243.259 77.1158 245.23 71.7475L227.941 41.093C227.693 40.654 227.847 40.0957 228.285 39.8473C228.723 39.599 229.28 39.7539 229.528 40.193L247.024 71.213C247.153 71.4435 247.176 71.7176 247.089 71.966C244.977 77.99 241.291 82.4563 236.428 84.8842C233.717 86.2372 230.723 86.9167 227.552 86.9167H227.55Z" fill="#16120B"/>
<path d="M241.195 41.6464C243.124 35.8774 240.023 29.6331 234.269 27.6995C228.515 25.7659 222.287 28.875 220.358 34.644C218.43 40.413 221.531 46.6572 227.285 48.5909C233.039 50.5245 239.267 47.4154 241.195 41.6464Z" fill="white"/>
<path d="M220.914 56.0536C220.914 56.0536 210.645 74.513 200.618 70.8017C196.084 69.1228 191.618 61.9922 187.68 52.6462C187.541 52.3145 183.784 55.7874 183.122 52.1913C181.046 40.8903 181.757 25.0813 186.58 14.7321C186.58 14.7321 207.421 42.2771 222.379 36.3465L220.912 56.0536H220.914Z" fill="white"/>
<path d="M203.375 72.2123C202.358 72.2123 201.332 72.0395 200.301 71.658C196.019 70.0725 191.618 64.0922 187.21 53.8721C186.269 54.4086 184.88 55.1 183.669 54.5417C182.914 54.194 182.429 53.4569 182.227 52.3542C180.293 41.842 180.574 25.4628 185.756 14.3427C185.891 14.0526 186.168 13.8539 186.485 13.8201C186.806 13.7863 187.115 13.9214 187.308 14.1758C187.512 14.446 207.897 41.1009 222.046 35.4942C222.513 35.3094 223.042 35.5379 223.229 36.0088C223.413 36.4776 223.185 37.0081 222.715 37.1949C216.172 39.7896 207.948 36.8472 198.276 28.4529C192.955 23.8356 188.639 18.7494 186.806 16.4844C182.377 27.1854 182.215 42.2116 184.02 52.0224C184.105 52.4873 184.256 52.7992 184.432 52.8807C184.912 53.1012 186.077 52.4218 186.574 52.1317C187.121 51.8118 187.484 51.6032 187.948 51.7582C188.195 51.8416 188.417 52.0482 188.52 52.2886C192.787 62.4114 197.079 68.5168 200.935 69.9434C210.118 73.3428 220.02 55.7854 220.119 55.6066C220.365 55.1655 220.92 55.0086 221.36 55.2549C221.8 55.5013 221.956 56.0576 221.713 56.4967C221.32 57.202 212.851 72.2103 203.379 72.2103L203.375 72.2123Z" fill="#16120B"/>
<path d="M218.07 42.9964C218.009 42.9964 217.945 42.9904 217.882 42.9765C203.945 40.0519 191.639 30.1556 185.764 17.152C185.556 16.693 185.76 16.1506 186.217 15.942C186.675 15.7334 187.216 15.9381 187.424 16.397C193.064 28.8801 204.876 38.379 218.254 41.1864C218.748 41.2897 219.063 41.7745 218.96 42.2672C218.869 42.6983 218.49 42.9944 218.068 42.9944L218.07 42.9964Z" fill="#16120B"/>
<path d="M230.903 42.0645C230.534 42.0645 230.185 41.8381 230.049 41.4705C228.854 38.2618 229.048 33.8233 231.725 31.5524C232.11 31.2265 232.684 31.2742 233.009 31.6597C233.334 32.0451 233.287 32.6213 232.902 32.9471C230.887 34.6558 230.808 38.2837 231.755 40.8307C231.931 41.3036 231.691 41.8301 231.22 42.0069C231.115 42.0467 231.008 42.0645 230.901 42.0645H230.903Z" fill="#16120B"/>
<path d="M203.508 57.4027C200.715 57.4027 197.777 56.4907 197.263 56.3238C196.968 56.2285 196.742 55.9881 196.663 55.6881C196.584 55.3881 196.663 55.0662 196.873 54.8377L204.637 46.36C204.829 46.1514 205.107 46.0461 205.386 46.068C205.668 46.0918 205.921 46.2468 206.074 46.4852C208.864 50.8502 209.524 53.8781 208.091 55.7417C207.118 57.0073 205.343 57.4027 203.506 57.4027H203.508ZM199.217 54.9788C201.966 55.6602 205.582 56.0159 206.652 54.6231C207.433 53.6079 206.904 51.4462 205.166 48.4839L199.217 54.9788Z" fill="#16120B"/>
<path d="M190.836 42.5275C190.848 44.0951 191.769 45.3567 192.895 45.3487C194.021 45.3408 194.922 44.0633 194.908 42.4957C194.896 40.9281 193.975 39.6665 192.849 39.6744C191.724 39.6824 190.822 40.9599 190.836 42.5275Z" fill="#16120B"/>
<path d="M195.603 37.3141C195.436 37.3141 195.268 37.2684 195.117 37.173C193.966 36.4439 192.644 35.969 191.295 35.8001C190.795 35.7366 190.441 35.2816 190.504 34.7789C190.565 34.2782 191.019 33.9226 191.522 33.9862C193.136 34.1888 194.717 34.7571 196.092 35.6273C196.518 35.8975 196.645 36.4617 196.375 36.8869C196.201 37.1631 195.906 37.3121 195.605 37.3121L195.603 37.3141Z" fill="#16120B"/>
<path d="M166.831 192.958H195.598C195.598 192.958 197.899 184.771 195.598 180.267C193.298 175.763 181.023 169.212 172.968 172.488C164.913 175.763 166.831 192.958 166.831 192.958Z" fill="white"/>
<path d="M195.597 193.872H166.829C166.366 193.872 165.975 193.523 165.924 193.06C165.842 192.331 164.027 175.137 172.624 171.642C181.172 168.167 193.982 175.103 196.407 179.851C198.842 184.62 196.572 192.859 196.472 193.207C196.361 193.6 196.003 193.872 195.595 193.872H195.597ZM167.665 192.044H194.887C195.355 190.058 196.534 184.103 194.786 180.684C192.662 176.524 180.887 170.251 173.309 173.335C166.934 175.927 167.422 188.683 167.665 192.044Z" fill="#16120B"/>
<path d="M75.3789 185.73H177.885C178.64 185.73 179.252 186.344 179.252 187.101V193.944H75.3789V185.73Z" fill="#16120B"/>
<path d="M115.683 193.944H21.2349L0.481275 131.048C-1.52413 124.972 2.98804 118.71 9.37087 118.71H84.0922C88.1308 118.71 91.7135 121.306 92.9818 125.149L115.681 193.942L115.683 193.944Z" fill="#16120B"/>
<path d="M194.982 178.322C194.632 178.322 194.297 178.117 194.146 177.771C193.946 177.308 194.156 176.77 194.618 176.569L241.424 156.147L255.715 110.878C255.868 110.397 256.377 110.13 256.859 110.281C257.338 110.434 257.604 110.947 257.453 111.428L243.035 157.095C242.956 157.347 242.771 157.552 242.53 157.657L195.343 178.244C195.224 178.296 195.101 178.32 194.98 178.32L194.982 178.322Z" fill="#16120B"/>
<path d="M188.1 175.147C187.963 175.147 187.827 175.117 187.696 175.051C187.246 174.827 187.062 174.278 187.286 173.827L194.774 158.706L193.122 156.747C188.231 150.951 186.971 142.988 189.834 135.961L198.072 115.739C198.262 115.272 198.795 115.048 199.261 115.239C199.726 115.429 199.95 115.964 199.76 116.431L191.522 136.652C188.917 143.046 190.064 150.294 194.513 155.567L196.554 157.985C196.79 158.263 196.837 158.654 196.675 158.982L188.919 174.642C188.76 174.964 188.437 175.149 188.102 175.149L188.1 175.147Z" fill="#16120B"/>
<path d="M156.317 165.034L153.592 164.746C151.271 164.501 148.927 164.609 146.638 165.068L135.424 167.317C133.153 167.772 132.178 170.484 133.635 172.288C135.131 174.141 137.382 175.218 139.76 175.218L153.368 172.918L156.317 165.032V165.034Z" fill="white"/>
<path d="M139.76 176.132C137.095 176.132 134.604 174.94 132.926 172.864C132.038 171.765 131.794 170.317 132.274 168.988C132.751 167.658 133.863 166.699 135.244 166.423L146.458 164.174C148.84 163.697 151.272 163.583 153.685 163.838L156.41 164.126C156.691 164.156 156.941 164.313 157.09 164.555C157.238 164.795 157.266 165.091 157.169 165.356L154.22 173.241C154.105 173.545 153.838 173.768 153.519 173.821L139.911 176.122C139.861 176.13 139.81 176.134 139.76 176.134V176.132ZM151.17 165.533C149.71 165.533 148.254 165.678 146.817 165.966L135.603 168.215C134.852 168.366 134.249 168.886 133.988 169.609C133.728 170.331 133.861 171.119 134.342 171.715C135.656 173.343 137.6 174.284 139.685 174.306L152.696 172.107L155.047 165.821L153.493 165.658C152.718 165.576 151.941 165.534 151.167 165.534L151.17 165.533Z" fill="#16120B"/>
<path d="M161.558 166.347L156.941 165.191C154.93 164.686 152.804 165.292 151.355 166.778L139.332 179.132C137.763 180.839 138.564 183.607 140.799 184.209C143.096 184.826 145.549 184.37 147.473 182.967L155.988 172.918L161.558 166.347Z" fill="white"/>
<path d="M142.852 185.393C142.089 185.393 141.32 185.293 140.565 185.089C139.204 184.723 138.157 183.694 137.765 182.337C137.373 180.98 137.71 179.549 138.665 178.51L150.705 166.139C152.374 164.426 154.847 163.723 157.163 164.303L161.78 165.459C162.086 165.537 162.331 165.765 162.426 166.067C162.524 166.367 162.456 166.697 162.252 166.937L148.169 183.557C148.121 183.612 148.07 183.662 148.01 183.704C146.488 184.815 144.687 185.391 142.854 185.391L142.852 185.393ZM155.536 165.93C154.226 165.93 152.944 166.456 152.009 167.416L139.986 179.77C139.485 180.316 139.303 181.093 139.515 181.83C139.729 182.567 140.298 183.126 141.037 183.324C143.044 183.865 145.157 183.485 146.853 182.289L159.914 166.878L156.721 166.077C156.329 165.98 155.933 165.93 155.536 165.93Z" fill="#16120B"/>
<path d="M172.863 168.811L165.462 166.174C163.45 165.67 161.324 166.276 159.875 167.762L150.474 179.13C148.905 180.837 149.706 183.605 151.941 184.207C154.238 184.824 156.691 184.367 158.615 182.965L166.639 174.559L172.865 168.809L172.863 168.811Z" fill="white"/>
<path d="M153.993 185.393C153.23 185.393 152.463 185.293 151.706 185.091C150.344 184.725 149.298 183.696 148.906 182.339C148.513 180.982 148.85 179.552 149.805 178.512L159.174 167.182C160.893 165.413 163.366 164.71 165.682 165.29L173.167 167.951C173.468 168.058 173.692 168.314 173.755 168.628C173.819 168.942 173.714 169.266 173.48 169.482L167.254 175.232L159.272 183.599C159.234 183.638 159.192 183.674 159.149 183.706C157.625 184.815 155.824 185.393 153.991 185.393H153.993ZM164.061 166.904C162.775 166.904 161.475 167.43 160.53 168.402L151.179 179.714C150.628 180.314 150.445 181.091 150.659 181.83C150.873 182.567 151.442 183.126 152.181 183.324C154.195 183.867 156.319 183.483 158.019 182.273L165.983 173.929L171.14 169.164L165.161 167.037C164.802 166.947 164.434 166.904 164.065 166.904H164.061Z" fill="#16120B"/>
<path d="M188.1 174.233L173.638 168.996C171.835 168.543 169.929 169.085 168.629 170.42L160.199 180.612C158.792 182.142 159.509 184.626 161.515 185.164C163.574 185.716 165.773 185.309 167.499 184.052L172.701 177.845L188.102 174.231L188.1 174.233Z" fill="white"/>
<path d="M163.354 186.322C162.662 186.322 161.965 186.231 161.279 186.046C160.027 185.711 159.064 184.763 158.701 183.515C158.34 182.265 158.649 180.95 159.527 179.995L167.925 169.838C169.495 168.223 171.75 167.583 173.856 168.111C173.886 168.119 173.916 168.127 173.946 168.139L188.408 173.376C188.881 173.547 189.125 174.072 188.954 174.547C188.784 175.022 188.259 175.266 187.787 175.095L173.371 169.876C171.903 169.522 170.337 169.975 169.279 171.062L160.899 181.2C160.423 181.719 160.268 182.381 160.451 183.01C160.633 183.64 161.118 184.117 161.749 184.286C163.516 184.761 165.377 184.431 166.873 183.38L172 177.263C172.323 176.877 172.897 176.828 173.284 177.151C173.668 177.475 173.72 178.051 173.395 178.439L168.193 184.644C168.145 184.701 168.092 184.751 168.03 184.795C166.649 185.802 165.014 186.326 163.35 186.326L163.354 186.322Z" fill="#16120B"/>
<path d="M56.4799 162.512C59.0778 159.907 59.0778 155.684 56.4799 153.079C53.882 150.475 49.67 150.475 47.0721 153.079C44.4742 155.684 44.4742 159.907 47.0721 162.512C49.67 165.116 53.882 165.116 56.4799 162.512Z" fill="white"/>
<path d="M51.7758 165.378C47.6064 165.378 44.2119 161.976 44.2119 157.794C44.2119 153.612 47.6045 150.21 51.7758 150.21C55.9471 150.21 59.3397 153.612 59.3397 157.794C59.3397 161.976 55.9471 165.378 51.7758 165.378ZM51.7758 152.038C48.6111 152.038 46.035 154.621 46.035 157.794C46.035 160.967 48.6092 163.55 51.7758 163.55C54.9424 163.55 57.5166 160.967 57.5166 157.794C57.5166 154.621 54.9405 152.038 51.7758 152.038Z" fill="#16120B"/>
<path d="M102.999 111.507C77.1661 111.507 56.1489 90.4352 56.1489 64.5352C56.1489 38.6353 77.1661 17.5632 102.999 17.5632C128.831 17.5632 149.848 38.6353 149.848 64.5352C149.848 90.4352 128.831 111.507 102.999 111.507ZM102.999 37.9279C88.3663 37.9279 76.4606 49.8627 76.4606 64.5352C76.4606 79.2078 88.3643 91.1425 102.999 91.1425C117.633 91.1425 129.537 79.2078 129.537 64.5352C129.537 49.8627 117.633 37.9279 102.999 37.9279Z" fill="white"/>
<path d="M102.999 18.4772C128.369 18.4772 148.937 39.0982 148.937 64.5353C148.937 89.9723 128.369 110.593 102.999 110.593C77.6277 110.593 57.0604 89.9723 57.0604 64.5353C57.0604 39.0982 77.6277 18.4772 102.999 18.4772ZM102.999 92.0565C118.158 92.0565 130.448 79.7343 130.448 64.5353C130.448 49.3362 118.158 37.016 102.999 37.016C87.8391 37.016 75.551 49.3382 75.551 64.5353C75.551 79.7323 87.8391 92.0565 102.999 92.0565ZM102.999 16.6493C76.6627 16.6493 55.2373 38.1306 55.2373 64.5353C55.2373 90.9399 76.6627 112.421 102.999 112.421C129.334 112.421 150.76 90.9399 150.76 64.5353C150.76 38.1306 129.334 16.6493 102.999 16.6493ZM102.999 90.2286C88.8675 90.2286 77.3721 78.7032 77.3721 64.5353C77.3721 50.3674 88.8675 38.8419 102.999 38.8419C117.13 38.8419 128.625 50.3674 128.625 64.5353C128.625 78.7032 117.13 90.2286 102.999 90.2286Z" fill="#16120B"/>
<path d="M102.999 18.4772C102.715 18.4772 102.434 18.4931 102.15 18.4991V37.038C102.432 37.03 102.713 37.0161 102.999 37.0161C118.158 37.0161 130.448 49.3383 130.448 64.5373C130.448 69.6255 129.065 74.3879 126.663 78.4768L142.675 87.7452C146.65 80.9285 148.939 73.0031 148.939 64.5373C148.939 39.1003 128.371 18.4792 103.001 18.4792L102.999 18.4772Z" fill="#EC5F82"/>
<path d="M66.168 39.6188L80.2792 49.0919C85.0588 42.0367 93.025 37.332 102.103 37.0379V18.4991C86.6204 18.7971 73.0125 26.7602 64.9116 38.7744L66.168 39.6188Z" fill="#16120B"/>
<path d="M67.2065 92.3188V64.438H43.1238H19.041V92.3188H43.1238H67.2065Z" fill="white"/>
<path d="M67.2064 93.2327H19.0409C18.5376 93.2327 18.1294 92.8235 18.1294 92.3188V64.438C18.1294 63.9333 18.5376 63.524 19.0409 63.524H67.2064C67.7098 63.524 68.118 63.9333 68.118 64.438V92.3188C68.118 92.8235 67.7098 93.2327 67.2064 93.2327ZM19.9525 91.4049H66.2949V65.3519H19.9525V91.4049Z" fill="#16120B"/>
<path d="M67.2065 92.3188V64.438L43.1238 79.8357L19.041 64.438V92.3188H43.1238H67.2065Z" fill="white"/>
<path d="M67.2064 93.2328H19.0409C18.5376 93.2328 18.1294 92.8235 18.1294 92.3188V64.438C18.1294 64.1042 18.3117 63.7983 18.603 63.6373C18.8963 63.4764 19.251 63.4883 19.5304 63.6671L43.1237 78.751L66.717 63.6671C66.9984 63.4883 67.3531 63.4764 67.6444 63.6373C67.9357 63.7983 68.118 64.1042 68.118 64.438V92.3188C68.118 92.8235 67.7098 93.2328 67.2064 93.2328ZM19.9525 91.4049H66.2949V66.103L43.6132 80.6047C43.3139 80.7954 42.9315 80.7954 42.6342 80.6047L19.9525 66.103V91.4049Z" fill="#16120B"/>
<path d="M67.2063 68.7911V64.438L43.1235 79.8357L67.2063 68.7911Z" fill="#16120B"/>
<path d="M155.554 1.00522H120.871C115.485 1.00522 111.12 5.38215 111.12 10.7823V18.0758C111.12 23.476 115.485 27.8529 120.871 27.8529H121.749V37.6717L132.406 27.8529H155.554C160.94 27.8529 165.305 23.476 165.305 18.0758V10.7823C165.305 5.38215 160.94 1.00522 155.554 1.00522Z" fill="white"/>
<path d="M121.749 38.5857C121.624 38.5857 121.501 38.5598 121.382 38.5082C121.051 38.3631 120.837 38.0333 120.837 37.6717V28.7669C114.974 28.749 110.208 23.9588 110.208 18.0759V10.7823C110.208 4.88745 114.992 0.0913086 120.871 0.0913086H155.554C161.433 0.0913086 166.217 4.88745 166.217 10.7823V18.0759C166.217 23.9707 161.433 28.7669 155.554 28.7669H132.761L122.365 38.3452C122.193 38.5022 121.973 38.5857 121.749 38.5857ZM120.871 1.91718C115.996 1.91718 112.031 5.89278 112.031 10.7803V18.0739C112.031 22.9614 115.996 26.937 120.871 26.937H121.749C122.252 26.937 122.661 27.3463 122.661 27.8509V35.5896L131.79 27.1774C131.958 27.0224 132.178 26.937 132.406 26.937H155.554C160.428 26.937 164.394 22.9614 164.394 18.0739V10.7803C164.394 5.89278 160.428 1.91718 155.554 1.91718H120.871Z" fill="#16120B"/>
<path d="M152.123 9.77698H124.717C124.214 9.77698 123.806 9.3677 123.806 8.86305C123.806 8.3584 124.214 7.94913 124.717 7.94913H152.123C152.626 7.94913 153.035 8.3584 153.035 8.86305C153.035 9.3677 152.626 9.77698 152.123 9.77698Z" fill="#16120B"/>
<path d="M152.123 15.4255H124.717C124.214 15.4255 123.806 15.0162 123.806 14.5115C123.806 14.0069 124.214 13.5976 124.717 13.5976H152.123C152.626 13.5976 153.035 14.0069 153.035 14.5115C153.035 15.0162 152.626 15.4255 152.123 15.4255Z" fill="#16120B"/>
<path d="M152.123 21.0739H124.717C124.214 21.0739 123.806 20.6646 123.806 20.16C123.806 19.6553 124.214 19.2461 124.717 19.2461H152.123C152.626 19.2461 153.035 19.6553 153.035 20.16C153.035 20.6646 152.626 21.0739 152.123 21.0739Z" fill="#16120B"/>
</svg>
