<svg width="276" height="135" viewBox="0 0 276 135" fill="none" xmlns="http://www.w3.org/2000/svg">
<path d="M18.8203 105.05C18.6268 106.506 18.5287 107.961 18.5287 109.416C18.5287 118.245 22.5059 120.866 27.2597 120.866C30.655 120.866 35.7971 119.022 40.0659 112.329L41.8113 113.492C37.7373 123.486 28.9083 134.062 17.4619 134.062C8.73094 134.062 0 127.464 0 115.531C0 98.26 12.4179 82.736 33.4686 82.736C41.3262 82.736 45.9832 87.1989 45.9832 92.0501C45.9832 99.4237 36.4757 103.111 18.8203 105.052V105.05ZM18.917 104.08C27.0662 100.976 32.1102 95.833 32.1102 91.952C32.1102 88.8478 30.17 85.8403 27.9382 85.8403C24.8344 85.8403 20.2741 94.6692 18.9157 104.081L18.917 104.08Z" fill="white"/>
<path d="M119.131 120.478C120.004 120.478 120.973 119.894 122.816 118.149L124.077 120.283C118.741 127.269 113.212 134.061 107.101 134.061C102.251 134.061 99.1455 130.957 99.1455 124.455C99.1455 116.015 106.616 104.954 106.616 98.1619C106.616 96.9013 105.743 96.0279 104.869 96.0279C101.182 96.0279 96.43 102.141 87.3107 133.092H69.0722C73.7293 121.643 79.8401 103.596 79.8401 98.2599C79.8401 96.9013 78.9668 96.0279 78.0947 96.0279C74.4078 96.0279 69.654 102.141 60.5361 133.092H42.2009C46.6631 122.226 52.7753 102.821 52.7753 97.8716C52.7753 96.8046 52.387 96.2227 51.5136 96.2227C50.6402 96.2227 49.6701 96.7078 47.7299 98.4535L46.4683 96.4162C51.7071 89.3329 57.3342 82.736 63.5432 82.736C67.3268 82.736 69.8489 85.8403 69.8489 92.245C69.8489 97.7761 65.9684 109.613 63.6399 118.345L64.2217 118.538C73.341 92.4385 80.6167 82.6393 88.2808 82.6393C94.0047 82.6393 96.3332 86.9086 96.3332 93.2152C96.43 98.8432 92.8411 109.613 90.4159 118.345L90.999 118.538C100.118 92.3417 107.491 82.6393 115.252 82.6393C121.364 82.6393 124.661 87.2002 124.661 93.6036C124.661 101.656 117.87 114.755 117.87 118.83C117.87 119.897 118.259 120.48 119.132 120.48L119.131 120.478Z" fill="white"/>
<path d="M146.781 118.537C146.781 119.798 147.266 120.478 148.042 120.478C149.012 120.478 149.885 119.894 151.729 118.149L152.989 120.283C147.653 127.269 142.123 134.061 136.011 134.061C131.355 134.061 128.25 131.15 128.25 125.135C128.25 117.178 135.332 104.08 135.332 97.8703C135.332 96.8032 134.847 96.2214 133.974 96.2214C133.199 96.2214 132.132 96.7065 130.192 98.4521L129.028 96.4149C134.267 89.3316 139.893 82.7347 146.005 82.7347C150.564 82.7347 153.474 85.8389 153.474 92.2436C153.474 100.491 146.781 114.171 146.781 118.537Z" fill="white"/>
<path d="M164.632 78.4653C163.952 78.4653 162.885 79.0485 161.333 80.3091L160.073 78.1751C165.602 72.3536 170.647 67.114 176.564 67.114C180.638 67.114 183.452 69.928 183.452 75.9443C183.452 87.1021 173.848 111.455 173.848 118.538C173.848 119.799 174.236 120.479 175.108 120.479C175.98 120.479 176.951 119.896 178.795 118.15L180.055 120.284C174.72 127.271 169.189 134.062 163.078 134.062C158.421 134.062 155.318 131.152 155.318 125.137C155.318 114.27 165.795 90.6928 165.795 80.4071C165.795 79.1466 165.31 78.4667 164.632 78.4667V78.4653Z" fill="white"/>
<path d="M202.175 118.537C202.175 119.798 202.66 120.478 203.436 120.478C204.406 120.478 205.279 119.894 207.121 118.149L208.383 120.283C203.047 127.269 197.517 134.061 191.405 134.061C186.749 134.061 183.644 131.15 183.644 125.135C183.644 117.178 190.726 104.08 190.726 97.8703C190.726 96.8032 190.241 96.2214 189.368 96.2214C188.593 96.2214 187.526 96.7065 185.586 98.4521L184.422 96.4149C189.661 89.3316 195.287 82.7347 201.399 82.7347C205.958 82.7347 208.868 85.8389 208.868 92.2436C208.868 100.491 202.175 114.171 202.175 118.537Z" fill="white"/>
<path d="M256.306 120.478C257.277 120.478 258.15 119.894 259.993 118.149L261.254 120.283C255.918 127.269 250.389 134.061 244.277 134.061C240.396 134.061 237.776 131.247 237.776 125.426C237.776 119.604 240.687 107.573 242.918 98.1605L242.337 97.967C234.091 124.164 226.329 134.254 220.994 134.254C216.047 134.254 209.936 129.403 209.936 120.089C209.936 102.333 227.01 79.8239 263.582 83.5101C259.508 96.7052 254.948 113.297 254.948 118.439C254.948 119.699 255.531 120.476 256.306 120.476V120.478ZM245.248 86.6157C234.382 90.6902 227.397 105.439 227.397 115.918C227.397 119.12 228.562 120.964 229.92 120.964C233.219 120.964 235.936 115.142 245.248 86.617V86.6157Z" fill="white"/>
<path d="M226.627 74.8561C210.686 74.8561 197.717 61.885 197.717 45.9422C197.717 29.9994 210.686 17.0283 226.627 17.0283C242.567 17.0283 255.536 29.9994 255.536 45.9422C255.536 61.885 242.567 74.8561 226.627 74.8561ZM226.627 29.5315C217.579 29.5315 210.218 36.8932 210.218 45.9422C210.218 54.9912 217.579 62.3529 226.627 62.3529C235.674 62.3529 243.035 54.9912 243.035 45.9422C243.035 36.8932 235.674 29.5315 226.627 29.5315Z" fill="white"/>
<path d="M226.627 17.5705C242.294 17.5705 254.994 30.2738 254.994 45.9422C254.994 61.6106 242.293 74.314 226.627 74.314C210.961 74.314 198.259 61.6106 198.259 45.9422C198.259 30.2738 210.961 17.5705 226.627 17.5705ZM226.627 62.895C235.989 62.895 243.577 55.3054 243.577 45.9422C243.577 36.5791 235.989 28.9894 226.627 28.9894C217.265 28.9894 209.676 36.5791 209.676 45.9422C209.676 55.3054 217.265 62.895 226.627 62.895ZM226.627 16.4875C210.388 16.4875 197.176 29.7012 197.176 45.9422C197.176 62.1832 210.388 75.3969 226.627 75.3969C242.865 75.3969 256.077 62.1832 256.077 45.9422C256.077 29.7012 242.865 16.4875 226.627 16.4875ZM226.627 61.8121C217.877 61.8121 210.759 54.693 210.759 45.9422C210.759 37.1914 217.877 30.0723 226.627 30.0723C235.376 30.0723 242.494 37.1914 242.494 45.9422C242.494 54.693 235.376 61.8121 226.627 61.8121Z" fill="white"/>
<path d="M226.627 17.5705C226.45 17.5705 226.278 17.5811 226.103 17.5837V29.004C226.278 28.9987 226.45 28.9907 226.627 28.9907C235.989 28.9907 243.577 36.5804 243.577 45.9435C243.577 49.0783 242.724 52.0116 241.241 54.5299L251.127 60.2388C253.582 56.0397 254.994 51.1579 254.994 45.9435C254.994 30.2738 242.293 17.5718 226.627 17.5718V17.5705Z" fill="#EB5F81"/>
<path d="M203.884 30.5932L212.597 36.428C215.549 32.0817 220.468 29.1829 226.074 29.0027V17.5824C216.514 17.7666 208.11 22.6709 203.108 30.0723L203.885 30.5919L203.884 30.5932Z" fill="#16120B"/>
<path d="M267.235 0.542114H239.877C235.628 0.542114 232.185 3.98702 232.185 8.23516V13.9745C232.185 18.2226 235.629 21.6675 239.877 21.6675H240.569V29.3937L248.975 21.6675H267.235C271.483 21.6675 274.927 18.2226 274.927 13.9745V8.23516C274.927 3.98702 271.482 0.542114 267.235 0.542114Z" fill="white"/>
<path d="M240.569 29.9358C240.494 29.9358 240.422 29.9212 240.351 29.8894C240.154 29.8033 240.028 29.6084 240.028 29.3937V22.2083H239.878C235.338 22.2083 231.644 18.5142 231.644 13.9745V8.23516C231.644 3.69409 235.338 0 239.878 0H267.236C271.776 0 275.47 3.69409 275.47 8.23516V13.9745C275.47 18.5155 271.776 22.2083 267.236 22.2083H249.188L240.937 29.7927C240.835 29.8868 240.704 29.9358 240.571 29.9358H240.569ZM239.877 1.08291C235.934 1.08291 232.726 4.29055 232.726 8.23516V13.9745C232.726 17.9177 235.934 21.1267 239.877 21.1267H240.569C240.868 21.1267 241.109 21.3693 241.109 21.6675V28.161L248.609 21.2685C248.709 21.1771 248.84 21.1254 248.975 21.1254H267.235C271.177 21.1254 274.386 17.9164 274.386 13.9731V8.23384C274.386 4.29056 271.177 1.08158 267.235 1.08158H239.877V1.08291Z" fill="white"/>
<path d="M264.528 8.83693H242.91C242.611 8.83693 242.37 8.59437 242.37 8.29614C242.37 7.9979 242.612 7.75534 242.91 7.75534H264.528C264.827 7.75534 265.069 7.9979 265.069 8.29614C265.069 8.59437 264.827 8.83693 264.528 8.83693Z" fill="#16120B"/>
<path d="M264.528 13.9996H242.91C242.611 13.9996 242.37 13.7571 242.37 13.4589C242.37 13.1606 242.612 12.9181 242.91 12.9181H264.528C264.827 12.9181 265.069 13.1606 265.069 13.4589C265.069 13.7571 264.827 13.9996 264.528 13.9996Z" fill="#16120B"/>
</svg>
