<svg width="105" height="52" viewBox="0 0 105 52" fill="none" xmlns="http://www.w3.org/2000/svg">
<path d="M7.17367 40.0417C7.09992 40.5964 7.06254 41.1512 7.06254 41.7059C7.06254 45.0712 8.5785 46.0701 10.3905 46.0701C11.6847 46.0701 13.6447 45.3673 15.2718 42.8159L15.9371 43.2595C14.3842 47.0689 11.0189 51.1001 6.65589 51.1001C3.32795 51.1001 0 48.5851 0 44.0365C0 37.4534 4.73328 31.5362 12.7571 31.5362C15.7522 31.5362 17.5273 33.2373 17.5273 35.0864C17.5273 37.897 13.9033 39.3025 7.17367 40.0422V40.0417ZM7.21055 39.6719C10.3167 38.4886 12.2393 36.5284 12.2393 35.049C12.2393 33.8658 11.4998 32.7194 10.6491 32.7194C9.46606 32.7194 7.72783 36.0848 7.21004 39.6724L7.21055 39.6719Z" fill="white"/>
<path d="M45.4088 45.922C45.7417 45.922 46.111 45.6997 46.8136 45.0344L47.294 45.8478C45.2603 48.5108 43.1528 51.0996 40.8235 51.0996C38.9747 51.0996 37.7911 49.9164 37.7911 47.4382C37.7911 44.2209 40.6386 40.0048 40.6386 37.416C40.6386 36.9356 40.3057 36.6026 39.9728 36.6026C38.5675 36.6026 36.756 38.9327 33.2801 50.7303H26.3282C28.1033 46.3661 30.4325 39.4875 30.4325 37.4534C30.4325 36.9356 30.0996 36.6026 29.7672 36.6026C28.3619 36.6026 26.5499 38.9327 23.0745 50.7303H16.0857C17.7865 46.5884 20.1163 39.1919 20.1163 37.3054C20.1163 36.8987 19.9683 36.6769 19.6354 36.6769C19.3025 36.6769 18.9327 36.8618 18.1932 37.5272L17.7123 36.7507C19.7092 34.0507 21.854 31.5362 24.2207 31.5362C25.6629 31.5362 26.6242 32.7195 26.6242 35.1607C26.6242 37.269 25.1451 41.7807 24.2575 45.1091L24.4793 45.1829C27.9553 35.2345 30.7286 31.4993 33.6499 31.4993C35.8316 31.4993 36.7192 33.1267 36.7192 35.5305C36.756 37.6757 35.3881 41.7807 34.4637 45.1091L34.6859 45.1829C38.1619 35.1976 40.972 31.4993 43.9302 31.4993C46.26 31.4993 47.5168 33.2378 47.5168 35.6786C47.5168 38.7478 44.9284 43.741 44.9284 45.294C44.9284 45.7008 45.0764 45.923 45.4093 45.923L45.4088 45.922Z" fill="white"/>
<path d="M55.9483 45.1824C55.9483 45.6628 56.1332 45.922 56.4287 45.922C56.7985 45.922 57.1314 45.6997 57.8341 45.0343L58.3145 45.8478C56.2807 48.5108 54.1727 51.0996 51.8429 51.0996C50.0683 51.0996 48.8848 49.9901 48.8848 47.6974C48.8848 44.6645 51.5843 39.6719 51.5843 37.3049C51.5843 36.8982 51.3994 36.6764 51.0665 36.6764C50.771 36.6764 50.3644 36.8613 49.6248 37.5267L49.1813 36.7501C51.1782 34.0502 53.3225 31.5357 55.6523 31.5357C57.39 31.5357 58.4993 32.7189 58.4993 35.1602C58.4993 38.3037 55.9483 43.5182 55.9483 45.1824Z" fill="white"/>
<path d="M62.7521 29.9084C62.493 29.9084 62.0863 30.1307 61.4948 30.6111L61.0144 29.7977C63.1219 27.5788 65.045 25.5816 67.3005 25.5816C68.8533 25.5816 69.9258 26.6542 69.9258 28.9474C69.9258 33.2004 66.2649 42.483 66.2649 45.1829C66.2649 45.6634 66.413 45.9225 66.7453 45.9225C67.0777 45.9225 67.448 45.7002 68.1507 45.0349L68.6311 45.8483C66.5973 48.5113 64.4893 51.1001 62.1601 51.1001C60.385 51.1001 59.2019 49.9906 59.2019 47.6979C59.2019 43.5561 63.1956 34.5691 63.1956 30.6485C63.1956 30.1681 63.0108 29.9089 62.7521 29.9089V29.9084Z" fill="white"/>
<path d="M77.0626 45.1824C77.0626 45.6628 77.2475 45.922 77.543 45.922C77.9127 45.922 78.2456 45.6997 78.9478 45.0343L79.4287 45.8478C77.395 48.5108 75.287 51.0996 72.9572 51.0996C71.1826 51.0996 69.999 49.9901 69.999 47.6974C69.999 44.6645 72.6986 39.6719 72.6986 37.3049C72.6986 36.8982 72.5137 36.6764 72.1808 36.6764C71.8853 36.6764 71.4786 36.8613 70.7391 37.5267L70.2955 36.7501C72.2924 34.0502 74.4368 31.5357 76.7666 31.5357C78.5043 31.5357 79.6136 32.7189 79.6136 35.1602C79.6136 38.3037 77.0626 43.5182 77.0626 45.1824Z" fill="white"/>
<path d="M97.6955 45.922C98.0653 45.922 98.3982 45.6997 99.1009 45.0343L99.5813 45.8478C97.5475 48.5108 95.44 51.0996 93.1103 51.0996C91.6312 51.0996 90.6325 50.027 90.6325 47.808C90.6325 45.5891 91.7418 41.0031 92.5925 37.4155L92.3707 37.3418C89.2277 47.3271 86.269 51.1733 84.2357 51.1733C82.35 51.1733 80.0208 49.3242 80.0208 45.774C80.0208 39.006 86.5286 30.4262 100.469 31.8313C98.916 36.8608 97.1778 43.1852 97.1778 45.145C97.1778 45.6255 97.4 45.9215 97.6955 45.9215V45.922ZM93.4805 33.015C89.3388 34.5681 86.6761 40.1897 86.6761 44.184C86.6761 45.4047 87.1202 46.1074 87.638 46.1074C88.8953 46.1074 89.9308 43.8885 93.4805 33.0155V33.015Z" fill="white"/>
<path d="M86.3824 28.5326C80.3065 28.5326 75.363 23.5885 75.363 17.5116C75.363 11.4348 80.3065 6.49063 86.3824 6.49063C92.4584 6.49063 97.4018 11.4348 97.4018 17.5116C97.4018 23.5885 92.4584 28.5326 86.3824 28.5326ZM86.3824 11.2564C82.9338 11.2564 80.1281 14.0625 80.1281 17.5116C80.1281 20.9608 82.9338 23.7668 86.3824 23.7668C89.8311 23.7668 92.6367 20.9608 92.6367 17.5116C92.6367 14.0625 89.8311 11.2564 86.3824 11.2564Z" fill="white"/>
<path d="M86.3825 6.69727C92.3544 6.69727 97.1953 11.5394 97.1953 17.5116C97.1953 23.4839 92.3539 28.326 86.3825 28.326C80.4111 28.326 75.5697 23.4839 75.5697 17.5116C75.5697 11.5394 80.4111 6.69727 86.3825 6.69727ZM86.3825 23.9735C89.9509 23.9735 92.8434 21.0806 92.8434 17.5116C92.8434 13.9427 89.9509 11.0498 86.3825 11.0498C82.8141 11.0498 79.9216 13.9427 79.9216 17.5116C79.9216 21.0806 82.8141 23.9735 86.3825 23.9735ZM86.3825 6.2845C80.1928 6.2845 75.157 11.3211 75.157 17.5116C75.157 23.7022 80.1928 28.7388 86.3825 28.7388C92.5721 28.7388 97.608 23.7022 97.608 17.5116C97.608 11.3211 92.5721 6.2845 86.3825 6.2845ZM86.3825 23.5607C83.0475 23.5607 80.3343 20.8471 80.3343 17.5116C80.3343 14.1761 83.0475 11.4626 86.3825 11.4626C89.7175 11.4626 92.4307 14.1761 92.4307 17.5116C92.4307 20.8471 89.7175 23.5607 86.3825 23.5607Z" fill="white"/>
<path d="M86.3826 6.69728C86.3155 6.69728 86.2498 6.70132 86.1831 6.70233V11.0554C86.2498 11.0533 86.3155 11.0503 86.3826 11.0503C89.951 11.0503 92.8435 13.9432 92.8435 17.5122C92.8435 18.707 92.5182 19.8251 91.953 20.785L95.7214 22.961C96.6569 21.3605 97.1954 19.4997 97.1954 17.5122C97.1954 11.5394 92.354 6.69779 86.3826 6.69779V6.69728Z" fill="#EB5F81"/>
<path d="M77.7137 11.6611L81.0351 13.8851C82.1601 12.2285 84.0352 11.1236 86.172 11.0549V6.70183C82.5278 6.77205 79.3247 8.64139 77.4182 11.4626L77.7142 11.6606L77.7137 11.6611Z" fill="#16120B"/>
<path d="M101.861 0.206635H91.4331C89.8136 0.206635 88.5012 1.51972 88.5012 3.13897V5.3266C88.5012 6.94585 89.8141 8.25893 91.4331 8.25893H91.6968V11.2039L94.901 8.25893H101.861C103.481 8.25893 104.793 6.94585 104.793 5.3266V3.13897C104.793 1.51972 103.48 0.206635 101.861 0.206635Z" fill="white"/>
<path d="M91.6966 11.4105C91.6683 11.4105 91.6405 11.405 91.6138 11.3929C91.5385 11.36 91.4905 11.2857 91.4905 11.2039V8.46507H91.4334C89.7028 8.46507 88.2949 7.057 88.2949 5.3266V3.13897C88.2949 1.40806 89.7028 0 91.4334 0H101.861C103.592 0 105 1.40806 105 3.13897V5.3266C105 7.05751 103.592 8.46507 101.861 8.46507H94.9821L91.837 11.356C91.7981 11.3918 91.7481 11.4105 91.6976 11.4105H91.6966ZM91.4329 0.412769C89.9301 0.412769 88.7071 1.63542 88.7071 3.13897V5.3266C88.7071 6.82965 89.9301 8.0528 91.4329 8.0528H91.6966C91.8108 8.0528 91.9027 8.14526 91.9027 8.25893V10.734L94.7614 8.10686C94.7993 8.072 94.8493 8.0523 94.9008 8.0523H101.861C103.364 8.0523 104.587 6.82914 104.587 5.32609V3.13847C104.587 1.63542 103.364 0.412263 101.861 0.412263H91.4329V0.412769Z" fill="white"/>
<path d="M100.829 3.36833H92.5894C92.4752 3.36833 92.3833 3.27588 92.3833 3.1622C92.3833 3.04853 92.4757 2.95607 92.5894 2.95607H100.829C100.943 2.95607 101.036 3.04853 101.036 3.1622C101.036 3.27588 100.943 3.36833 100.829 3.36833Z" fill="#16120B"/>
<path d="M100.829 5.33618H92.5894C92.4752 5.33618 92.3833 5.24373 92.3833 5.13005C92.3833 5.01638 92.4757 4.92392 92.5894 4.92392H100.829C100.943 4.92392 101.036 5.01638 101.036 5.13005C101.036 5.24373 100.943 5.33618 100.829 5.33618Z" fill="#16120B"/>
</svg>
